<?xml version="1.0" encoding="UTF-8" standalone="no"?>
<svg
   xmlns:dc="http://purl.org/dc/elements/1.1/"
   xmlns:cc="http://creativecommons.org/ns#"
   xmlns:rdf="http://www.w3.org/1999/02/22-rdf-syntax-ns#"
   xmlns:svg="http://www.w3.org/2000/svg"
   xmlns="http://www.w3.org/2000/svg"
   xmlns:sodipodi="http://sodipodi.sourceforge.net/DTD/sodipodi-0.dtd"
   xmlns:inkscape="http://www.inkscape.org/namespaces/inkscape"
   version="1.1"
   id="svg2"
   xml:space="preserve"
   width="271.064"
   height="218.32933"
   viewBox="0 0 271.064 218.32933"
   sodipodi:docname="fig-natural-ex.pdf"><metadata
     id="metadata8"><rdf:RDF><cc:Work
         rdf:about=""><dc:format>image/svg+xml</dc:format><dc:type
           rdf:resource="http://purl.org/dc/dcmitype/StillImage" /></cc:Work></rdf:RDF></metadata><defs
     id="defs6"><clipPath
       clipPathUnits="userSpaceOnUse"
       id="clipPath260"><path
         d="M 0,0 H 238.6285 V 181.93727 H 0 Z"
         id="path258" /></clipPath></defs><sodipodi:namedview
     pagecolor="#ffffff"
     bordercolor="#666666"
     borderopacity="1"
     objecttolerance="10"
     gridtolerance="10"
     guidetolerance="10"
     inkscape:pageopacity="0"
     inkscape:pageshadow="2"
     inkscape:window-width="640"
     inkscape:window-height="480"
     id="namedview4" /><g
     id="g10"
     inkscape:groupmode="layer"
     inkscape:label="fig-natural-ex"
     transform="matrix(1.3333333,0,0,-1.3333333,0,218.32933)"><g
       id="g12"
       transform="translate(7.748,12.973)"><g
         id="g14"><g
           id="g16"><g
             id="g18" /><g
             id="g20" /><g
             id="g22"
             transform="scale(0.8)"><g
               id="g24" /></g><g
             id="g26" /><g
             id="g28" /><g
             id="g30" /><g
             id="g32" /><g
             id="g34"
             transform="matrix(0.8,0,0,0.8,-7.748,-12.973)"><g
               id="g36"
               transform="translate(9.686,16.217)"><g
                 id="g38"><g
                   id="g40"><g
                     id="g42"><g
                       id="g44"><g
                         id="g46"><path
                           d="M 0,0 V 181.93727 M 39.77141,0 V 181.93727 M 79.54283,0 V 181.93727 M 159.08566,0 V 181.93727 M 198.85707,0 V 181.93727 M 238.6285,0 v 181.93727"
                           style="fill:none;stroke:#bfbfbf;stroke-width:0.3985;stroke-linecap:butt;stroke-linejoin:miter;stroke-miterlimit:10;stroke-dasharray:none;stroke-opacity:1"
                           id="path48" /></g></g><g
                       id="g50"><g
                         id="g52"><path
                           d="M 0,45.48431 H 238.6285 M 0,90.96863 H 238.6285 M 0,136.45296 H 238.6285 M 0,181.93727 h 238.6285"
                           style="fill:none;stroke:#bfbfbf;stroke-width:0.3985;stroke-linecap:butt;stroke-linejoin:miter;stroke-miterlimit:10;stroke-dasharray:none;stroke-opacity:1"
                           id="path54" /></g></g><g
                       id="g56"><g
                         id="g58"><path
                           d="m 0,-2.12592 v 4.25184 m 39.77141,-4.25184 v 4.25184 m 39.77142,-4.25184 v 4.25184 m 79.54283,-4.25184 v 4.25184 m 39.77141,-4.25184 v 4.25184 m 39.77143,-4.25184 v 4.25184"
                           style="fill:none;stroke:#808080;stroke-width:0.19925;stroke-linecap:butt;stroke-linejoin:miter;stroke-miterlimit:10;stroke-dasharray:none;stroke-opacity:1"
                           id="path60" /></g></g><g
                       id="g62"><g
                         id="g64"><path
                           d="m 117.18823,45.48431 h 4.252 m -4.252,45.48432 h 4.252 m -4.252,45.48433 h 4.252 m -4.252,45.48431 h 4.252"
                           style="fill:none;stroke:#808080;stroke-width:0.19925;stroke-linecap:butt;stroke-linejoin:miter;stroke-miterlimit:10;stroke-dasharray:none;stroke-opacity:1"
                           id="path66" /></g></g><path
                       d="M 0,0 H 236.63597"
                       style="fill:none;stroke:#000000;stroke-width:0.3985;stroke-linecap:butt;stroke-linejoin:miter;stroke-miterlimit:10;stroke-dasharray:none;stroke-opacity:1"
                       id="path68" /><g
                       id="g70"
                       transform="translate(236.63597)"><g
                         id="g72"><path
                           d="M 1.99252,0 -1.19551,1.59401 0,0 -1.19551,-1.59401"
                           style="fill:#000000;fill-opacity:1;fill-rule:nonzero;stroke:none"
                           id="path74" /></g></g><path
                       d="M 119.31424,0 V 179.94475"
                       style="fill:none;stroke:#000000;stroke-width:0.3985;stroke-linecap:butt;stroke-linejoin:miter;stroke-miterlimit:10;stroke-dasharray:none;stroke-opacity:1"
                       id="path76" /><g
                       id="g78"
                       transform="rotate(90,-30.315255,149.62949)"><g
                         id="g80"><path
                           d="M 1.99252,0 -1.19551,1.59401 0,0 -1.19551,-1.59401"
                           style="fill:#000000;fill-opacity:1;fill-rule:nonzero;stroke:none"
                           id="path82" /></g></g><g
                       id="g84"><g
                         id="g86"
                         transform="translate(-6.365,-12.066)"><g
                           id="g88"><g
                             id="g90"
                             transform="translate(-3.321,-4.151)"><text
                               transform="matrix(1,0,0,-1,3.321,4.151)"
                               style="font-variant:normal;font-weight:normal;font-size:9.96264px;font-family:CMSY10;-inkscape-font-specification:CMSY10;writing-mode:lr-tb;fill:#000000;fill-opacity:1;fill-rule:nonzero;stroke:none"
                               id="text94"><tspan
                                 x="0"
                                 y="0"
                                 id="tspan92">−</tspan></text><text
                               transform="matrix(1,0,0,-1,11.069,4.151)"
                               style="font-variant:normal;font-weight:normal;font-size:9.96264px;font-family:CMR10;-inkscape-font-specification:CMR10;writing-mode:lr-tb;fill:#000000;fill-opacity:1;fill-rule:nonzero;stroke:none"
                               id="text98"><tspan
                                 x="0"
                                 y="0"
                                 id="tspan96">3</tspan></text><g
                               id="g100"
                               transform="translate(3.321,4.151)" /></g></g><g
                           id="g102"
                           transform="translate(6.365,12.066)" /></g></g><g
                       id="g104"><g
                         id="g106"
                         transform="translate(33.405,-12.066)"><g
                           id="g108"><g
                             id="g110"
                             transform="translate(-43.091,-4.151)"><text
                               transform="matrix(1,0,0,-1,43.091,4.151)"
                               style="font-variant:normal;font-weight:normal;font-size:9.96264px;font-family:CMSY10;-inkscape-font-specification:CMSY10;writing-mode:lr-tb;fill:#000000;fill-opacity:1;fill-rule:nonzero;stroke:none"
                               id="text114"><tspan
                                 x="0"
                                 y="0"
                                 id="tspan112">−</tspan></text><text
                               transform="matrix(1,0,0,-1,50.84,4.151)"
                               style="font-variant:normal;font-weight:normal;font-size:9.96264px;font-family:CMR10;-inkscape-font-specification:CMR10;writing-mode:lr-tb;fill:#000000;fill-opacity:1;fill-rule:nonzero;stroke:none"
                               id="text118"><tspan
                                 x="0"
                                 y="0"
                                 id="tspan116">2</tspan></text><g
                               id="g120"
                               transform="translate(43.091,4.151)" /></g></g><g
                           id="g122"
                           transform="translate(-33.405,12.066)" /></g></g><g
                       id="g124"><g
                         id="g126"
                         transform="translate(73.176,-12.066)"><g
                           id="g128"><g
                             id="g130"
                             transform="translate(-82.862,-4.151)"><text
                               transform="matrix(1,0,0,-1,82.862,4.151)"
                               style="font-variant:normal;font-weight:normal;font-size:9.96264px;font-family:CMSY10;-inkscape-font-specification:CMSY10;writing-mode:lr-tb;fill:#000000;fill-opacity:1;fill-rule:nonzero;stroke:none"
                               id="text134"><tspan
                                 x="0"
                                 y="0"
                                 id="tspan132">−</tspan></text><text
                               transform="matrix(1,0,0,-1,90.611,4.151)"
                               style="font-variant:normal;font-weight:normal;font-size:9.96264px;font-family:CMR10;-inkscape-font-specification:CMR10;writing-mode:lr-tb;fill:#000000;fill-opacity:1;fill-rule:nonzero;stroke:none"
                               id="text138"><tspan
                                 x="0"
                                 y="0"
                                 id="tspan136">1</tspan></text><g
                               id="g140"
                               transform="translate(82.862,4.151)" /></g></g><g
                           id="g142"
                           transform="translate(-73.176,12.066)" /></g></g><g
                       id="g144"><g
                         id="g146"
                         transform="translate(156.592,-12.066)"><g
                           id="g148"><g
                             id="g150"
                             transform="translate(-166.278,-4.151)"><text
                               transform="matrix(1,0,0,-1,166.278,4.151)"
                               style="font-variant:normal;font-weight:normal;font-size:9.96264px;font-family:CMR10;-inkscape-font-specification:CMR10;writing-mode:lr-tb;fill:#000000;fill-opacity:1;fill-rule:nonzero;stroke:none"
                               id="text154"><tspan
                                 x="0"
                                 y="0"
                                 id="tspan152">1</tspan></text><g
                               id="g156"
                               transform="translate(166.278,4.151)" /></g></g><g
                           id="g158"
                           transform="translate(-156.592,12.066)" /></g></g><g
                       id="g160"><g
                         id="g162"
                         transform="translate(196.363,-12.066)"><g
                           id="g164"><g
                             id="g166"
                             transform="translate(-206.049,-4.151)"><text
                               transform="matrix(1,0,0,-1,206.049,4.151)"
                               style="font-variant:normal;font-weight:normal;font-size:9.96264px;font-family:CMR10;-inkscape-font-specification:CMR10;writing-mode:lr-tb;fill:#000000;fill-opacity:1;fill-rule:nonzero;stroke:none"
                               id="text170"><tspan
                                 x="0"
                                 y="0"
                                 id="tspan168">2</tspan></text><g
                               id="g172"
                               transform="translate(206.049,4.151)" /></g></g><g
                           id="g174"
                           transform="translate(-196.363,12.066)" /></g></g><g
                       id="g176"><g
                         id="g178"
                         transform="translate(236.134,-12.066)"><g
                           id="g180"><g
                             id="g182"
                             transform="translate(-245.82,-4.151)"><text
                               transform="matrix(1,0,0,-1,245.82,4.151)"
                               style="font-variant:normal;font-weight:normal;font-size:9.96264px;font-family:CMR10;-inkscape-font-specification:CMR10;writing-mode:lr-tb;fill:#000000;fill-opacity:1;fill-rule:nonzero;stroke:none"
                               id="text186"><tspan
                                 x="0"
                                 y="0"
                                 id="tspan184">3</tspan></text><g
                               id="g188"
                               transform="translate(245.82,4.151)" /></g></g><g
                           id="g190"
                           transform="translate(-236.134,12.066)" /></g></g><g
                       id="g192"><g
                         id="g194"
                         transform="translate(108.685,42.273)"><g
                           id="g196"><g
                             id="g198"
                             transform="translate(-118.371,-58.49)"><text
                               transform="matrix(1,0,0,-1,118.371,58.49)"
                               style="font-variant:normal;font-weight:normal;font-size:9.96264px;font-family:CMR10;-inkscape-font-specification:CMR10;writing-mode:lr-tb;fill:#000000;fill-opacity:1;fill-rule:nonzero;stroke:none"
                               id="text202"><tspan
                                 x="0"
                                 y="0"
                                 id="tspan200">2</tspan></text><g
                               id="g204"
                               transform="translate(118.371,58.49)" /></g></g><g
                           id="g206"
                           transform="translate(-108.685,-42.273)" /></g></g><g
                       id="g208"><g
                         id="g210"
                         transform="translate(108.685,87.757)"><g
                           id="g212"><g
                             id="g214"
                             transform="translate(-118.371,-103.974)"><text
                               transform="matrix(1,0,0,-1,118.371,103.974)"
                               style="font-variant:normal;font-weight:normal;font-size:9.96264px;font-family:CMR10;-inkscape-font-specification:CMR10;writing-mode:lr-tb;fill:#000000;fill-opacity:1;fill-rule:nonzero;stroke:none"
                               id="text218"><tspan
                                 x="0"
                                 y="0"
                                 id="tspan216">4</tspan></text><g
                               id="g220"
                               transform="translate(118.371,103.974)" /></g></g><g
                           id="g222"
                           transform="translate(-108.685,-87.757)" /></g></g><g
                       id="g224"><g
                         id="g226"
                         transform="translate(108.685,133.241)"><g
                           id="g228"><g
                             id="g230"
                             transform="translate(-118.371,-149.458)"><text
                               transform="matrix(1,0,0,-1,118.371,149.458)"
                               style="font-variant:normal;font-weight:normal;font-size:9.96264px;font-family:CMR10;-inkscape-font-specification:CMR10;writing-mode:lr-tb;fill:#000000;fill-opacity:1;fill-rule:nonzero;stroke:none"
                               id="text234"><tspan
                                 x="0"
                                 y="0"
                                 id="tspan232">6</tspan></text><g
                               id="g236"
                               transform="translate(118.371,149.458)" /></g></g><g
                           id="g238"
                           transform="translate(-108.685,-133.241)" /></g></g><g
                       id="g240"><g
                         id="g242"
                         transform="translate(108.685,178.725)"><g
                           id="g244"><g
                             id="g246"
                             transform="translate(-118.371,-194.942)"><text
                               transform="matrix(1,0,0,-1,118.371,194.942)"
                               style="font-variant:normal;font-weight:normal;font-size:9.96264px;font-family:CMR10;-inkscape-font-specification:CMR10;writing-mode:lr-tb;fill:#000000;fill-opacity:1;fill-rule:nonzero;stroke:none"
                               id="text250"><tspan
                                 x="0"
                                 y="0"
                                 id="tspan248">8</tspan></text><g
                               id="g252"
                               transform="translate(118.371,194.942)" /></g></g><g
                           id="g254"
                           transform="translate(-108.685,-178.725)" /></g></g><g
                       id="g256"
                       clip-path="url(#clipPath260)"><g
                         id="g262"><path
                           d="m 0,1.13225 2.04883,0.05986 2.04883,0.06302 2.04881,0.06636 2.04883,0.06985 2.04884,0.07356 2.04883,0.07744 2.04883,0.08153 2.04881,0.08586 2.04883,0.09038 2.04884,0.09515 2.04883,0.10021 2.04881,0.10548 2.04883,0.11107 2.04885,0.11694 2.04882,0.12313 2.04883,0.12962 2.04881,0.13649 2.04883,0.14371 2.04884,0.15129 2.04883,0.15929 2.04883,0.16771 2.04881,0.17657 2.04885,0.18593 2.04883,0.19574 2.04882,0.20608 2.04883,0.217 2.04881,0.22845 2.04885,0.24054 2.04883,0.25325 2.04882,0.26664 2.04883,0.28073 2.04881,0.29559 2.04885,0.3112 2.04883,0.32764 2.04882,0.34498 2.04883,0.36322 2.04883,0.38241 2.04883,0.40263 2.04883,0.42392 2.04883,0.44632 2.04881,0.46992 2.04884,0.49475 2.04883,0.52094 2.04883,0.54845 2.04883,0.57745 2.04883,0.60799 2.04882,0.6401 2.04883,0.67396 2.04883,0.70959 2.04882,0.7471 2.04883,0.78661 2.04883,0.82818 2.04883,0.87195 2.04883,0.91807 2.04883,0.96659 2.04883,1.0177 2.04882,1.07148 2.04883,1.12813 2.04883,1.18778 2.04883,1.25058 2.04883,1.31666 2.04882,1.38629 2.04883,1.45957 2.04883,1.53674 2.04883,1.61797 2.04883,1.70349 2.04882,1.79356 2.04883,1.88838 2.04885,1.98822 2.04881,2.09331 2.04883,2.20397 2.04883,2.32049 2.04882,2.44318 2.04885,2.57231 2.04881,2.7083 2.04883,2.85148 2.04883,3.00225 2.04883,3.16092 2.04882,3.32805 2.04883,3.50398 2.04883,3.68922 2.04882,3.88425 2.04885,4.0896 2.04881,4.30578 2.04883,4.53342 2.04883,4.77307 2.04883,5.02541 2.04884,5.29106 2.04881,5.5708 2.04883,5.86528 2.04883,6.17535 2.04884,6.50182 2.04883,6.84553 2.04881,7.20743 2.04883,7.58844 2.04883,7.98963 2.04884,8.41198 2.04883,8.85668 2.04881,9.3249"
                           style="fill:none;stroke:#00008b;stroke-width:1.19553;stroke-linecap:butt;stroke-linejoin:miter;stroke-miterlimit:10;stroke-dasharray:none;stroke-opacity:1"
                           id="path264" /></g><g
                         id="g266"><path
                           d="m 35.79422,185.71513 2.04883,-9.3249 2.04884,-8.85668 2.04883,-8.41198 2.04883,-7.98963 2.04881,-7.58844 2.04883,-7.20743 2.04884,-6.84553 2.04883,-6.50182 2.04883,-6.17535 2.04881,-5.86528 2.04883,-5.5708 2.04884,-5.29106 2.04883,-5.02541 2.04881,-4.77307 2.04883,-4.53342 2.04885,-4.30578 2.04882,-4.0896 2.04883,-3.88425 2.04881,-3.68922 2.04883,-3.50398 2.04885,-3.32805 2.04882,-3.16092 2.04883,-3.00225 2.04882,-2.85148 2.04884,-2.7083 2.04883,-2.57231 2.04883,-2.44318 2.04882,-2.32049 2.04882,-2.20397 2.04884,-2.09331 2.04882,-1.98822 2.04884,-1.88838 2.04882,-1.79356 2.04882,-1.70349 2.04884,-1.61797 2.04883,-1.53674 2.04883,-1.45957 2.04881,-1.38629 2.04884,-1.31666 2.04883,-1.25058 2.04883,-1.18778 2.04883,-1.12813 2.04881,-1.07148 2.04884,-1.0177 2.04883,-0.96659 2.04883,-0.91807 2.04883,-0.87195 2.04883,-0.82818 2.04882,-0.78661 2.04883,-0.7471 2.04883,-0.70959 2.04883,-0.67396 2.04883,-0.6401 2.04882,-0.60799 2.04883,-0.57745 2.04883,-0.54845 2.04881,-0.52094 2.04885,-0.49475 2.04883,-0.46992 2.04882,-0.44632 2.04883,-0.42392 2.04883,-0.40263 2.04882,-0.38241 2.04884,-0.36322 2.04882,-0.34498 2.04883,-0.32764 2.04883,-0.3112 2.04883,-0.29559 2.04883,-0.28073 2.04882,-0.26664 2.04885,-0.25325 2.04881,-0.24054 2.04883,-0.22845 2.04883,-0.217 2.04882,-0.20608 2.04883,-0.19574 2.04883,-0.18593 2.04883,-0.17657 2.04883,-0.16771 2.04883,-0.15929 2.04882,-0.15129 2.04883,-0.14371 2.04883,-0.13649 2.04883,-0.12962 2.04884,-0.12313 2.04881,-0.11694 2.04883,-0.11107 2.04883,-0.10548 2.04883,-0.10021 2.04884,-0.09515 2.04882,-0.09038 2.04882,-0.08586 2.04883,-0.08153 2.04885,-0.07744 2.04882,-0.07356 2.04882,-0.06985 2.04882,-0.06636 2.04883,-0.06302 2.04884,-0.05986"
                           style="fill:none;stroke:#8b0000;stroke-width:1.19553;stroke-linecap:butt;stroke-linejoin:miter;stroke-miterlimit:10;stroke-dasharray:none;stroke-opacity:1"
                           id="path268" /></g><g
                         id="g270"><g
                           id="g272"><g
                             id="g274"
                             transform="translate(124.825,20.251)"><g
                               id="g276"><g
                                 id="g278"
                                 transform="translate(-134.511,-36.468)"><text
                                   transform="matrix(1,0,0,-1,134.511,36.468)"
                                   style="font-variant:normal;font-weight:normal;font-size:9.96264px;font-family:CMR10;-inkscape-font-specification:CMR10;writing-mode:lr-tb;fill:#000000;fill-opacity:1;fill-rule:nonzero;stroke:none"
                                   id="text282"><tspan
                                   x="0 3.8744707"
                                   y="0"
                                   sodipodi:role="line"
                                   id="tspan280">(0</tspan></text><text
                                   transform="matrix(1,0,0,-1,143.366,36.468)"
                                   style="font-variant:normal;font-weight:normal;font-size:9.96264px;font-family:CMMI10;-inkscape-font-specification:CMMI10;writing-mode:lr-tb;fill:#000000;fill-opacity:1;fill-rule:nonzero;stroke:none"
                                   id="text286"><tspan
                                   x="0"
                                   y="0"
                                   id="tspan284">,</tspan></text><text
                                   transform="matrix(1,0,0,-1,147.794,36.468)"
                                   style="font-variant:normal;font-weight:normal;font-size:9.96264px;font-family:CMR10;-inkscape-font-specification:CMR10;writing-mode:lr-tb;fill:#000000;fill-opacity:1;fill-rule:nonzero;stroke:none"
                                   id="text290"><tspan
                                   x="0 4.9813199"
                                   y="0"
                                   sodipodi:role="line"
                                   id="tspan288">1)</tspan></text><g
                                   id="g292"
                                   transform="translate(134.511,36.468)" /></g></g><g
                               id="g294"
                               transform="translate(-124.825,-20.251)" /></g></g></g><g
                         id="g296"><g
                           id="g298"
                           transform="translate(11.473,9.811)"><g
                             id="g300"><g
                               id="g302"
                               transform="translate(-21.159,-26.028)"><text
                                 transform="matrix(1,0,0,-1,21.159,26.028)"
                                 style="font-variant:normal;font-weight:normal;font-size:8.96638px;font-family:LMRoman9;-inkscape-font-specification:LMRoman9-Regular;writing-mode:lr-tb;fill:#000000;fill-opacity:1;fill-rule:nonzero;stroke:none"
                                 id="text306"><tspan
                                   x="0 6.9130788 9.4774637 16.390543 18.954927"
                                   y="0"
                                   sodipodi:role="line"
                                   id="tspan304">H.A.:</tspan></text><text
                                 transform="matrix(1,0,0,-1,46.779,26.028)"
                                 style="font-variant:normal;font-weight:normal;font-size:8.96638px;font-family:CMMI9;-inkscape-font-specification:CMMI9;writing-mode:lr-tb;fill:#000000;fill-opacity:1;fill-rule:nonzero;stroke:none"
                                 id="text310"><tspan
                                   x="0"
                                   y="0"
                                   id="tspan308">y</tspan></text><text
                                 transform="matrix(1,0,0,-1,54.199,26.028)"
                                 style="font-variant:normal;font-weight:normal;font-size:8.96638px;font-family:CMR9;-inkscape-font-specification:CMR9;writing-mode:lr-tb;fill:#000000;fill-opacity:1;fill-rule:nonzero;stroke:none"
                                 id="text314"><tspan
                                   x="0 9.7231426"
                                   y="0"
                                   sodipodi:role="line"
                                   id="tspan312">=0</tspan></text><g
                                 id="g316"
                                 transform="translate(21.159,26.028)" /></g></g><g
                             id="g318"
                             transform="translate(-11.473,-9.811)" /></g></g></g></g><g
                     id="g320"><path
                       d="m 121.30666,22.742 c 0,1.10047 -0.89208,1.99256 -1.99256,1.99256 -1.10046,0 -1.99255,-0.89209 -1.99255,-1.99256 0,-1.10047 0.89209,-1.99255 1.99255,-1.99255 1.10048,0 1.99256,0.89208 1.99256,1.99255 z"
                       style="fill:#000000;fill-opacity:1;fill-rule:nonzero;stroke:#000000;stroke-width:0.3985;stroke-linecap:butt;stroke-linejoin:miter;stroke-miterlimit:10;stroke-dasharray:none;stroke-opacity:1"
                       id="path322" /></g><g
                     id="g324"><g
                       id="g326"
                       transform="translate(229.411,3.52)"><g
                         id="g328"><g
                           id="g330"
                           transform="translate(-239.097,-19.737)"><text
                             transform="matrix(1,0,0,-1,239.097,19.737)"
                             style="font-variant:normal;font-weight:normal;font-size:9.96264px;font-family:CMMI10;-inkscape-font-specification:CMMI10;writing-mode:lr-tb;fill:#000000;fill-opacity:1;fill-rule:nonzero;stroke:none"
                             id="text334"><tspan
                               x="0"
                               y="0"
                               id="tspan332">x</tspan></text><g
                             id="g336"
                             transform="translate(239.097,19.737)" /></g></g><g
                         id="g338"
                         transform="translate(-229.411,-3.52)" /></g></g><g
                     id="g340"><g
                       id="g342"
                       transform="translate(122.832,174.125)"><g
                         id="g344"><g
                           id="g346"
                           transform="translate(-132.518,-190.342)"><text
                             transform="matrix(1,0,0,-1,132.518,190.342)"
                             style="font-variant:normal;font-weight:normal;font-size:9.96264px;font-family:CMMI10;-inkscape-font-specification:CMMI10;writing-mode:lr-tb;fill:#000000;fill-opacity:1;fill-rule:nonzero;stroke:none"
                             id="text350"><tspan
                               x="0"
                               y="0"
                               id="tspan348">y</tspan></text><g
                             id="g352"
                             transform="translate(132.518,190.342)" /></g></g><g
                         id="g354"
                         transform="translate(-122.832,-174.125)" /></g></g><g
                     id="g356"><g
                       id="g358"><path
                         d="m 82.81229,143.34361 h 73.0039 v 29.29697 h -73.0039 z"
                         style="fill:#ffffff;fill-opacity:1;fill-rule:nonzero;stroke:#000000;stroke-width:0.3985;stroke-linecap:butt;stroke-linejoin:miter;stroke-miterlimit:10;stroke-dasharray:none;stroke-opacity:1"
                         id="path360" /></g><g
                       id="g362"
                       transform="translate(85.8,151.888)"><g
                         id="g364"
                         transform="translate(0.597,12.656)"><g
                           id="g366"><g
                             id="g368"><path
                               d="m 0,0 h 8.50412 8.50414"
                               style="fill:none;stroke:#00008b;stroke-width:1.19553;stroke-linecap:butt;stroke-linejoin:miter;stroke-miterlimit:10;stroke-dasharray:none;stroke-opacity:1"
                               id="path370" /></g></g><g
                           id="g372"
                           transform="translate(42.017)"><g
                             id="g374"><g
                               id="g376"><g
                                 id="g378"
                                 transform="translate(-19.54,-2.616)"><g
                                   id="g380"><g
                                   id="g382"
                                   transform="translate(-118.56,-178.145)"><text
                                   transform="matrix(1,0,0,-1,118.56,178.145)"
                                   style="font-variant:normal;font-weight:normal;font-size:8.96638px;font-family:CMMI9;-inkscape-font-specification:CMMI9;writing-mode:lr-tb;fill:#000000;fill-opacity:1;fill-rule:nonzero;stroke:none"
                                   id="text386"><tspan
                                   x="0"
                                   y="0"
                                   id="tspan384">f</tspan></text><text
                                   transform="matrix(1,0,0,-1,124.008,178.145)"
                                   style="font-variant:normal;font-weight:normal;font-size:8.96638px;font-family:CMR9;-inkscape-font-specification:CMR9;writing-mode:lr-tb;fill:#000000;fill-opacity:1;fill-rule:nonzero;stroke:none"
                                   id="text390"><tspan
                                   x="0"
                                   y="0"
                                   id="tspan388">(</tspan></text><text
                                   transform="matrix(1,0,0,-1,127.592,178.145)"
                                   style="font-variant:normal;font-weight:normal;font-size:8.96638px;font-family:CMMI9;-inkscape-font-specification:CMMI9;writing-mode:lr-tb;fill:#000000;fill-opacity:1;fill-rule:nonzero;stroke:none"
                                   id="text394"><tspan
                                   x="0"
                                   y="0"
                                   id="tspan392">x</tspan></text><text
                                   transform="matrix(1,0,0,-1,132.815,178.145)"
                                   style="font-variant:normal;font-weight:normal;font-size:8.96638px;font-family:CMR9;-inkscape-font-specification:CMR9;writing-mode:lr-tb;fill:#000000;fill-opacity:1;fill-rule:nonzero;stroke:none"
                                   id="text398"><tspan
                                   x="0 6.1392803"
                                   y="0"
                                   sodipodi:role="line"
                                   id="tspan396">)=</tspan></text><text
                                   transform="matrix(1,0,0,-1,148.686,178.145)"
                                   style="font-variant:normal;font-weight:normal;font-size:8.96638px;font-family:CMMI9;-inkscape-font-specification:CMMI9;writing-mode:lr-tb;fill:#000000;fill-opacity:1;fill-rule:nonzero;stroke:none"
                                   id="text402"><tspan
                                   x="0"
                                   y="0"
                                   id="tspan400">e</tspan></text><text
                                   transform="matrix(1,0,0,-1,152.97,181.954)"
                                   style="font-variant:normal;font-weight:normal;font-size:5.97758px;font-family:CMMI6;-inkscape-font-specification:CMMI6;writing-mode:lr-tb;fill:#000000;fill-opacity:1;fill-rule:nonzero;stroke:none"
                                   id="text406"><tspan
                                   x="0"
                                   y="0"
                                   id="tspan404">x</tspan></text><g
                                   id="g408"
                                   transform="translate(118.56,178.145)" /></g></g><g
                                   id="g410"
                                   transform="translate(19.54,2.616)" /></g></g></g><g
                             id="g412"
                             transform="translate(-42.017,-12.656)"><g
                               id="g414"><g
                                 id="g416"><path
                                   d="m 0,0 h 8.50412 8.50414"
                                   style="fill:none;stroke:#8b0000;stroke-width:1.19553;stroke-linecap:butt;stroke-linejoin:miter;stroke-miterlimit:10;stroke-dasharray:none;stroke-opacity:1"
                                   id="path418" /></g></g><g
                               id="g420"
                               transform="translate(42.017)"><g
                                 id="g422"><g
                                   id="g424"><g
                                   id="g426"
                                   transform="translate(-22.418,-3.067)"><g
                                   id="g428"><g
                                   id="g430"
                                   transform="translate(-115.682,-165.038)"><text
                                   transform="matrix(1,0,0,-1,115.682,165.038)"
                                   style="font-variant:normal;font-weight:normal;font-size:8.96638px;font-family:CMMI9;-inkscape-font-specification:CMMI9;writing-mode:lr-tb;fill:#000000;fill-opacity:1;fill-rule:nonzero;stroke:none"
                                   id="text434"><tspan
                                   x="0"
                                   y="0"
                                   id="tspan432">f</tspan></text><text
                                   transform="matrix(1,0,0,-1,121.13,165.038)"
                                   style="font-variant:normal;font-weight:normal;font-size:8.96638px;font-family:CMR9;-inkscape-font-specification:CMR9;writing-mode:lr-tb;fill:#000000;fill-opacity:1;fill-rule:nonzero;stroke:none"
                                   id="text438"><tspan
                                   x="0"
                                   y="0"
                                   id="tspan436">(</tspan></text><text
                                   transform="matrix(1,0,0,-1,124.714,165.038)"
                                   style="font-variant:normal;font-weight:normal;font-size:8.96638px;font-family:CMMI9;-inkscape-font-specification:CMMI9;writing-mode:lr-tb;fill:#000000;fill-opacity:1;fill-rule:nonzero;stroke:none"
                                   id="text442"><tspan
                                   x="0"
                                   y="0"
                                   id="tspan440">x</tspan></text><text
                                   transform="matrix(1,0,0,-1,129.937,165.038)"
                                   style="font-variant:normal;font-weight:normal;font-size:8.96638px;font-family:CMR9;-inkscape-font-specification:CMR9;writing-mode:lr-tb;fill:#000000;fill-opacity:1;fill-rule:nonzero;stroke:none"
                                   id="text446"><tspan
                                   x="0 6.1392803"
                                   y="0"
                                   sodipodi:role="line"
                                   id="tspan444">)=</tspan></text><text
                                   transform="matrix(1,0,0,-1,145.808,165.038)"
                                   style="font-variant:normal;font-weight:normal;font-size:8.96638px;font-family:CMMI9;-inkscape-font-specification:CMMI9;writing-mode:lr-tb;fill:#000000;fill-opacity:1;fill-rule:nonzero;stroke:none"
                                   id="text450"><tspan
                                   x="0"
                                   y="0"
                                   id="tspan448">e</tspan></text><text
                                   transform="matrix(1,0,0,-1,150.092,168.847)"
                                   style="font-variant:normal;font-weight:normal;font-size:5.97758px;font-family:CMSY6;-inkscape-font-specification:CMSY6;writing-mode:lr-tb;fill:#000000;fill-opacity:1;fill-rule:nonzero;stroke:none"
                                   id="text454"><tspan
                                   x="0"
                                   y="0"
                                   id="tspan452">−</tspan></text><text
                                   transform="matrix(1,0,0,-1,155.848,168.847)"
                                   style="font-variant:normal;font-weight:normal;font-size:5.97758px;font-family:CMMI6;-inkscape-font-specification:CMMI6;writing-mode:lr-tb;fill:#000000;fill-opacity:1;fill-rule:nonzero;stroke:none"
                                   id="text458"><tspan
                                   x="0"
                                   y="0"
                                   id="tspan456">x</tspan></text><g
                                   id="g460"
                                   transform="translate(115.682,165.038)" /></g></g><g
                                   id="g462"
                                   transform="translate(22.418,3.067)" /></g></g></g><g
                                 id="g464"
                                 transform="translate(-42.614)" /></g></g></g></g><g
                         id="g466"
                         transform="translate(-85.8,-151.888)" /></g></g></g></g><g
                 id="g468"
                 transform="translate(-9.686,-16.217)" /></g><g
               id="g470"
               transform="translate(7.748,12.973)" /></g><g
             id="g472" /><g
             id="g474" /></g></g></g></g></svg>
