<?xml version="1.0" encoding="UTF-8" standalone="no"?>
<svg
   xmlns:dc="http://purl.org/dc/elements/1.1/"
   xmlns:cc="http://creativecommons.org/ns#"
   xmlns:rdf="http://www.w3.org/1999/02/22-rdf-syntax-ns#"
   xmlns:svg="http://www.w3.org/2000/svg"
   xmlns="http://www.w3.org/2000/svg"
   xmlns:sodipodi="http://sodipodi.sourceforge.net/DTD/sodipodi-0.dtd"
   xmlns:inkscape="http://www.inkscape.org/namespaces/inkscape"
   version="1.1"
   id="svg2"
   xml:space="preserve"
   width="338.82932"
   height="235.11867"
   viewBox="0 0 338.82932 235.11867"
   sodipodi:docname="fig-base-a.pdf"><metadata
     id="metadata8"><rdf:RDF><cc:Work
         rdf:about=""><dc:format>image/svg+xml</dc:format><dc:type
           rdf:resource="http://purl.org/dc/dcmitype/StillImage" /></cc:Work></rdf:RDF></metadata><defs
     id="defs6"><clipPath
       clipPathUnits="userSpaceOnUse"
       id="clipPath276"><path
         d="M 0,0 H 238.6285 V 153.59319 H 0 Z"
         id="path274" /></clipPath></defs><sodipodi:namedview
     pagecolor="#ffffff"
     bordercolor="#666666"
     borderopacity="1"
     objecttolerance="10"
     gridtolerance="10"
     guidetolerance="10"
     inkscape:pageopacity="0"
     inkscape:pageshadow="2"
     inkscape:window-width="640"
     inkscape:window-height="480"
     id="namedview4" /><g
     id="g10"
     inkscape:groupmode="layer"
     inkscape:label="fig-base-a"
     transform="matrix(1.3333333,0,0,-1.3333333,0,235.11867)"><g
       id="g12"
       transform="translate(9.686,16.217)"><g
         id="g14"><g
           id="g16"><g
             id="g18" /><g
             id="g20" /><g
             id="g22"><g
               id="g24" /></g><g
             id="g26" /><g
             id="g28" /><g
             id="g30" /><g
             id="g32" /><g
             id="g34"
             transform="translate(-9.686,-16.217)"><g
               id="g36"
               transform="translate(9.686,16.217)"><g
                 id="g38"><g
                   id="g40"><g
                     id="g42"><g
                       id="g44"><g
                         id="g46"><path
                           d="M 0,0 V 153.59319 M 39.77141,0 V 153.59319 M 79.54283,0 V 153.59319 M 159.08566,0 V 153.59319 M 198.85707,0 V 153.59319 M 238.6285,0 v 153.59319"
                           style="fill:none;stroke:#bfbfbf;stroke-width:0.3985;stroke-linecap:butt;stroke-linejoin:miter;stroke-miterlimit:10;stroke-dasharray:none;stroke-opacity:1"
                           id="path48" /></g></g><g
                       id="g50"><g
                         id="g52"><path
                           d="M 0,30.71863 H 238.6285 M 0,61.43727 H 238.6285 M 0,92.1559 H 238.6285 M 0,122.87454 H 238.6285 M 0,153.59319 h 238.6285"
                           style="fill:none;stroke:#bfbfbf;stroke-width:0.3985;stroke-linecap:butt;stroke-linejoin:miter;stroke-miterlimit:10;stroke-dasharray:none;stroke-opacity:1"
                           id="path54" /></g></g><g
                       id="g56"><g
                         id="g58"><path
                           d="m 0,-2.12592 v 4.25184 m 39.77141,-4.25184 v 4.25184 m 39.77142,-4.25184 v 4.25184 m 79.54283,-4.25184 v 4.25184 m 39.77141,-4.25184 v 4.25184 m 39.77143,-4.25184 v 4.25184"
                           style="fill:none;stroke:#808080;stroke-width:0.19925;stroke-linecap:butt;stroke-linejoin:miter;stroke-miterlimit:10;stroke-dasharray:none;stroke-opacity:1"
                           id="path60" /></g></g><g
                       id="g62"><g
                         id="g64"><path
                           d="m 117.18823,30.71863 h 4.252 m -4.252,30.71864 h 4.252 m -4.252,30.71863 h 4.252 m -4.252,30.71864 h 4.252 m -4.252,30.71865 h 4.252"
                           style="fill:none;stroke:#808080;stroke-width:0.19925;stroke-linecap:butt;stroke-linejoin:miter;stroke-miterlimit:10;stroke-dasharray:none;stroke-opacity:1"
                           id="path66" /></g></g><path
                       d="M 0,0 H 236.63597"
                       style="fill:none;stroke:#000000;stroke-width:0.3985;stroke-linecap:butt;stroke-linejoin:miter;stroke-miterlimit:10;stroke-dasharray:none;stroke-opacity:1"
                       id="path68" /><g
                       id="g70"
                       transform="translate(236.63597)"><g
                         id="g72"><path
                           d="M 1.99252,0 -1.19551,1.59401 0,0 -1.19551,-1.59401"
                           style="fill:#000000;fill-opacity:1;fill-rule:nonzero;stroke:none"
                           id="path74" /></g></g><path
                       d="M 119.31424,0 V 151.60066"
                       style="fill:none;stroke:#000000;stroke-width:0.3985;stroke-linecap:butt;stroke-linejoin:miter;stroke-miterlimit:10;stroke-dasharray:none;stroke-opacity:1"
                       id="path76" /><g
                       id="g78"
                       transform="rotate(90,-16.14321,135.45745)"><g
                         id="g80"><path
                           d="M 1.99252,0 -1.19551,1.59401 0,0 -1.19551,-1.59401"
                           style="fill:#000000;fill-opacity:1;fill-rule:nonzero;stroke:none"
                           id="path82" /></g></g><g
                       id="g84"><g
                         id="g86"
                         transform="translate(-6.365,-12.066)"><g
                           id="g88"><g
                             id="g90"
                             transform="translate(-3.321,-4.151)"><text
                               transform="matrix(1,0,0,-1,3.321,4.151)"
                               style="font-variant:normal;font-weight:normal;font-size:9.96264px;font-family:CMSY10;-inkscape-font-specification:CMSY10;writing-mode:lr-tb;fill:#000000;fill-opacity:1;fill-rule:nonzero;stroke:none"
                               id="text94"><tspan
                                 x="0"
                                 y="0"
                                 id="tspan92">−</tspan></text><text
                               transform="matrix(1,0,0,-1,11.069,4.151)"
                               style="font-variant:normal;font-weight:normal;font-size:9.96264px;font-family:CMR10;-inkscape-font-specification:CMR10;writing-mode:lr-tb;fill:#000000;fill-opacity:1;fill-rule:nonzero;stroke:none"
                               id="text98"><tspan
                                 x="0"
                                 y="0"
                                 id="tspan96">3</tspan></text><g
                               id="g100"
                               transform="translate(3.321,4.151)" /></g></g><g
                           id="g102"
                           transform="translate(6.365,12.066)" /></g></g><g
                       id="g104"><g
                         id="g106"
                         transform="translate(33.405,-12.066)"><g
                           id="g108"><g
                             id="g110"
                             transform="translate(-43.091,-4.151)"><text
                               transform="matrix(1,0,0,-1,43.091,4.151)"
                               style="font-variant:normal;font-weight:normal;font-size:9.96264px;font-family:CMSY10;-inkscape-font-specification:CMSY10;writing-mode:lr-tb;fill:#000000;fill-opacity:1;fill-rule:nonzero;stroke:none"
                               id="text114"><tspan
                                 x="0"
                                 y="0"
                                 id="tspan112">−</tspan></text><text
                               transform="matrix(1,0,0,-1,50.84,4.151)"
                               style="font-variant:normal;font-weight:normal;font-size:9.96264px;font-family:CMR10;-inkscape-font-specification:CMR10;writing-mode:lr-tb;fill:#000000;fill-opacity:1;fill-rule:nonzero;stroke:none"
                               id="text118"><tspan
                                 x="0"
                                 y="0"
                                 id="tspan116">2</tspan></text><g
                               id="g120"
                               transform="translate(43.091,4.151)" /></g></g><g
                           id="g122"
                           transform="translate(-33.405,12.066)" /></g></g><g
                       id="g124"><g
                         id="g126"
                         transform="translate(73.176,-12.066)"><g
                           id="g128"><g
                             id="g130"
                             transform="translate(-82.862,-4.151)"><text
                               transform="matrix(1,0,0,-1,82.862,4.151)"
                               style="font-variant:normal;font-weight:normal;font-size:9.96264px;font-family:CMSY10;-inkscape-font-specification:CMSY10;writing-mode:lr-tb;fill:#000000;fill-opacity:1;fill-rule:nonzero;stroke:none"
                               id="text134"><tspan
                                 x="0"
                                 y="0"
                                 id="tspan132">−</tspan></text><text
                               transform="matrix(1,0,0,-1,90.611,4.151)"
                               style="font-variant:normal;font-weight:normal;font-size:9.96264px;font-family:CMR10;-inkscape-font-specification:CMR10;writing-mode:lr-tb;fill:#000000;fill-opacity:1;fill-rule:nonzero;stroke:none"
                               id="text138"><tspan
                                 x="0"
                                 y="0"
                                 id="tspan136">1</tspan></text><g
                               id="g140"
                               transform="translate(82.862,4.151)" /></g></g><g
                           id="g142"
                           transform="translate(-73.176,12.066)" /></g></g><g
                       id="g144"><g
                         id="g146"
                         transform="translate(156.592,-12.066)"><g
                           id="g148"><g
                             id="g150"
                             transform="translate(-166.278,-4.151)"><text
                               transform="matrix(1,0,0,-1,166.278,4.151)"
                               style="font-variant:normal;font-weight:normal;font-size:9.96264px;font-family:CMR10;-inkscape-font-specification:CMR10;writing-mode:lr-tb;fill:#000000;fill-opacity:1;fill-rule:nonzero;stroke:none"
                               id="text154"><tspan
                                 x="0"
                                 y="0"
                                 id="tspan152">1</tspan></text><g
                               id="g156"
                               transform="translate(166.278,4.151)" /></g></g><g
                           id="g158"
                           transform="translate(-156.592,12.066)" /></g></g><g
                       id="g160"><g
                         id="g162"
                         transform="translate(196.363,-12.066)"><g
                           id="g164"><g
                             id="g166"
                             transform="translate(-206.049,-4.151)"><text
                               transform="matrix(1,0,0,-1,206.049,4.151)"
                               style="font-variant:normal;font-weight:normal;font-size:9.96264px;font-family:CMR10;-inkscape-font-specification:CMR10;writing-mode:lr-tb;fill:#000000;fill-opacity:1;fill-rule:nonzero;stroke:none"
                               id="text170"><tspan
                                 x="0"
                                 y="0"
                                 id="tspan168">2</tspan></text><g
                               id="g172"
                               transform="translate(206.049,4.151)" /></g></g><g
                           id="g174"
                           transform="translate(-196.363,12.066)" /></g></g><g
                       id="g176"><g
                         id="g178"
                         transform="translate(236.134,-12.066)"><g
                           id="g180"><g
                             id="g182"
                             transform="translate(-245.82,-4.151)"><text
                               transform="matrix(1,0,0,-1,245.82,4.151)"
                               style="font-variant:normal;font-weight:normal;font-size:9.96264px;font-family:CMR10;-inkscape-font-specification:CMR10;writing-mode:lr-tb;fill:#000000;fill-opacity:1;fill-rule:nonzero;stroke:none"
                               id="text186"><tspan
                                 x="0"
                                 y="0"
                                 id="tspan184">3</tspan></text><g
                               id="g188"
                               transform="translate(245.82,4.151)" /></g></g><g
                           id="g190"
                           transform="translate(-236.134,12.066)" /></g></g><g
                       id="g192"><g
                         id="g194"
                         transform="translate(108.685,27.508)"><g
                           id="g196"><g
                             id="g198"
                             transform="translate(-118.371,-43.725)"><text
                               transform="matrix(1,0,0,-1,118.371,43.725)"
                               style="font-variant:normal;font-weight:normal;font-size:9.96264px;font-family:CMR10;-inkscape-font-specification:CMR10;writing-mode:lr-tb;fill:#000000;fill-opacity:1;fill-rule:nonzero;stroke:none"
                               id="text202"><tspan
                                 x="0"
                                 y="0"
                                 id="tspan200">1</tspan></text><g
                               id="g204"
                               transform="translate(118.371,43.725)" /></g></g><g
                           id="g206"
                           transform="translate(-108.685,-27.508)" /></g></g><g
                       id="g208"><g
                         id="g210"
                         transform="translate(108.685,58.226)"><g
                           id="g212"><g
                             id="g214"
                             transform="translate(-118.371,-74.443)"><text
                               transform="matrix(1,0,0,-1,118.371,74.443)"
                               style="font-variant:normal;font-weight:normal;font-size:9.96264px;font-family:CMR10;-inkscape-font-specification:CMR10;writing-mode:lr-tb;fill:#000000;fill-opacity:1;fill-rule:nonzero;stroke:none"
                               id="text218"><tspan
                                 x="0"
                                 y="0"
                                 id="tspan216">2</tspan></text><g
                               id="g220"
                               transform="translate(118.371,74.443)" /></g></g><g
                           id="g222"
                           transform="translate(-108.685,-58.226)" /></g></g><g
                       id="g224"><g
                         id="g226"
                         transform="translate(108.685,88.944)"><g
                           id="g228"><g
                             id="g230"
                             transform="translate(-118.371,-105.161)"><text
                               transform="matrix(1,0,0,-1,118.371,105.161)"
                               style="font-variant:normal;font-weight:normal;font-size:9.96264px;font-family:CMR10;-inkscape-font-specification:CMR10;writing-mode:lr-tb;fill:#000000;fill-opacity:1;fill-rule:nonzero;stroke:none"
                               id="text234"><tspan
                                 x="0"
                                 y="0"
                                 id="tspan232">3</tspan></text><g
                               id="g236"
                               transform="translate(118.371,105.161)" /></g></g><g
                           id="g238"
                           transform="translate(-108.685,-88.944)" /></g></g><g
                       id="g240"><g
                         id="g242"
                         transform="translate(108.685,119.663)"><g
                           id="g244"><g
                             id="g246"
                             transform="translate(-118.371,-135.88)"><text
                               transform="matrix(1,0,0,-1,118.371,135.88)"
                               style="font-variant:normal;font-weight:normal;font-size:9.96264px;font-family:CMR10;-inkscape-font-specification:CMR10;writing-mode:lr-tb;fill:#000000;fill-opacity:1;fill-rule:nonzero;stroke:none"
                               id="text250"><tspan
                                 x="0"
                                 y="0"
                                 id="tspan248">4</tspan></text><g
                               id="g252"
                               transform="translate(118.371,135.88)" /></g></g><g
                           id="g254"
                           transform="translate(-108.685,-119.663)" /></g></g><g
                       id="g256"><g
                         id="g258"
                         transform="translate(108.685,150.381)"><g
                           id="g260"><g
                             id="g262"
                             transform="translate(-118.371,-166.598)"><text
                               transform="matrix(1,0,0,-1,118.371,166.598)"
                               style="font-variant:normal;font-weight:normal;font-size:9.96264px;font-family:CMR10;-inkscape-font-specification:CMR10;writing-mode:lr-tb;fill:#000000;fill-opacity:1;fill-rule:nonzero;stroke:none"
                               id="text266"><tspan
                                 x="0"
                                 y="0"
                                 id="tspan264">5</tspan></text><g
                               id="g268"
                               transform="translate(118.371,166.598)" /></g></g><g
                           id="g270"
                           transform="translate(-108.685,-150.381)" /></g></g><g
                       id="g272"
                       clip-path="url(#clipPath276)"><g
                         id="g278"><path
                           d="m 0,3.83977 2.00865,0.13681 2.00865,0.14166 2.00867,0.14673 2.00865,0.15195 2.00865,0.15736 2.00866,0.16296 2.00865,0.16878 2.00865,0.17479 2.00867,0.18103 2.00865,0.18746 2.00865,0.19413 2.00865,0.20107 2.00865,0.20823 2.00865,0.21564 2.00865,0.22333 2.00867,0.23128 2.00866,0.23952 2.00866,0.24807 2.00865,0.25688 2.00866,0.26604 2.00866,0.27553 2.00865,0.28534 2.00866,0.29551 2.00865,0.30603 2.00865,0.31694 2.00865,0.32824 2.00867,0.33993 2.00865,0.35202 2.00865,0.36458 2.00865,0.37758 2.00866,0.39101 2.00865,0.40495 2.00866,0.41937 2.00866,0.43433 2.00865,0.44977 2.00866,0.46582 2.00866,0.48242 2.00865,0.4996 2.00866,0.5174 2.00865,0.53582 2.00866,0.55492 2.00865,0.57469 2.00865,0.59517 2.00865,0.61636 2.00867,0.63834 2.00865,0.66107 2.00865,0.68463 2.00866,0.70902 2.00865,0.73427 2.00865,0.76045 2.00866,0.78752 2.00866,0.81558 2.00865,0.84464 2.00867,0.87474 2.00865,0.9059 2.00865,0.93818 2.00867,0.97161 2.00865,1.00621 2.00865,1.04207 2.00865,1.07919 2.00865,1.11764 2.00865,1.15746 2.00867,1.1987 2.00865,1.24141 2.00866,1.28563 2.00865,1.33143 2.00865,1.37887 2.00865,1.42799 2.00867,1.47887 2.00865,1.53156 2.00867,1.58613 2.00865,1.64262 2.00865,1.70117 2.00865,1.76177 2.00867,1.82452 2.00865,1.88956 2.00865,1.95683 2.00866,2.02658 2.00865,2.09877 2.00865,2.17355 2.00867,2.25098 2.00865,2.33119 2.00865,2.41423 2.00865,2.50026 2.00865,2.58933 2.00865,2.68158 2.00867,2.77711 2.00865,2.87606 2.00867,2.97853 2.00865,3.08463 2.00865,3.19454 2.00865,3.30836 2.00867,3.42623 2.00865,3.54828 2.00866,3.67471 2.00865,3.80562 2.00865,3.94119 2.00865,4.08164 2.00867,4.22703"
                           style="fill:none;stroke:#00008b;stroke-width:0.79701;stroke-linecap:butt;stroke-linejoin:miter;stroke-miterlimit:10;stroke-dasharray:none;stroke-opacity:1"
                           id="path280" /></g><g
                         id="g282"><path
                           d="m 39.77136,122.8728 2.00865,-4.22703 2.00866,-4.08164 2.00866,-3.94119 2.00865,-3.80562 2.00866,-3.67471 2.00865,-3.54828 2.00865,-3.42623 2.00865,-3.30836 2.00868,-3.19454 2.00866,-3.08463 2.00865,-2.97853 2.00865,-2.87606 2.00865,-2.77711 2.00865,-2.68158 2.00867,-2.58933 2.00865,-2.50026 2.00865,-2.41423 2.00865,-2.33119 2.00865,-2.25098 2.00866,-2.17355 2.00867,-2.09877 2.00865,-2.02658 2.00865,-1.95683 2.00865,-1.88956 2.00865,-1.82452 2.00865,-1.76177 2.00869,-1.70117 2.00865,-1.64262 2.00865,-1.58613 2.00865,-1.53156 2.00865,-1.47887 2.00867,-1.42799 2.00865,-1.37887 2.00865,-1.33143 2.00866,-1.28563 2.00865,-1.24141 2.00865,-1.1987 2.00865,-1.15746 2.00867,-1.11764 2.00865,-1.07919 2.00865,-1.04207 2.00865,-1.00621 2.00865,-0.97161 2.00867,-0.93818 2.00867,-0.9059 2.00865,-0.87474 2.00865,-0.84464 2.00865,-0.81558 2.00866,-0.78752 2.00866,-0.76045 2.00865,-0.73427 2.00866,-0.70902 2.00865,-0.68463 2.00865,-0.66107 2.00865,-0.63834 2.00867,-0.61636 2.00865,-0.59517 2.00865,-0.57469 2.00865,-0.55492 2.00865,-0.53582 2.00866,-0.5174 2.00868,-0.4996 2.00865,-0.48242 2.00865,-0.46582 2.00865,-0.44977 2.00865,-0.43433 2.00866,-0.41937 2.00866,-0.40495 2.00866,-0.39101 2.00865,-0.37758 2.00865,-0.36458 2.00865,-0.35202 2.00865,-0.33993 2.00867,-0.32824 2.00865,-0.31694 2.00865,-0.30603 2.00865,-0.29551 2.00866,-0.28534 2.00865,-0.27553 2.00868,-0.26604 2.00865,-0.25688 2.00866,-0.24807 2.00865,-0.23952 2.00865,-0.23128 2.00865,-0.22333 2.00867,-0.21564 2.00865,-0.20823 2.00865,-0.20107 2.00865,-0.19413 2.00865,-0.18746 2.00866,-0.18103 2.00866,-0.17479 2.00866,-0.16878 2.00865,-0.16296 2.00865,-0.15736 2.00865,-0.15195 2.00867,-0.14673 2.00866,-0.14166 2.00865,-0.13681"
                           style="fill:none;stroke:#8b0000;stroke-width:0.79701;stroke-linecap:butt;stroke-linejoin:miter;stroke-miterlimit:10;stroke-dasharray:none;stroke-opacity:1"
                           id="path284" /></g><g
                         id="g286" /></g></g><g
                     id="g288"><path
                       d="m 121.30666,30.71819 c 0,1.10047 -0.89208,1.99255 -1.99256,1.99255 -1.10046,0 -1.99255,-0.89208 -1.99255,-1.99255 0,-1.10047 0.89209,-1.99256 1.99255,-1.99256 1.10048,0 1.99256,0.89209 1.99256,1.99256 z"
                       style="fill:#000000;fill-opacity:1;fill-rule:nonzero;stroke:#000000;stroke-width:0.3985;stroke-linecap:butt;stroke-linejoin:miter;stroke-miterlimit:10;stroke-dasharray:none;stroke-opacity:1"
                       id="path290" /></g><g
                     id="g292"><g
                       id="g294"
                       transform="translate(229.411,3.52)"><g
                         id="g296"><g
                           id="g298"
                           transform="translate(-239.097,-19.737)"><text
                             transform="matrix(1,0,0,-1,239.097,19.737)"
                             style="font-variant:normal;font-weight:normal;font-size:9.96264px;font-family:CMMI10;-inkscape-font-specification:CMMI10;writing-mode:lr-tb;fill:#000000;fill-opacity:1;fill-rule:nonzero;stroke:none"
                             id="text302"><tspan
                               x="0"
                               y="0"
                               id="tspan300">x</tspan></text><g
                             id="g304"
                             transform="translate(239.097,19.737)" /></g></g><g
                         id="g306"
                         transform="translate(-229.411,-3.52)" /></g></g><g
                     id="g308"><g
                       id="g310"
                       transform="translate(122.832,142.599)"><g
                         id="g312"><g
                           id="g314"
                           transform="translate(-132.518,-158.816)"><text
                             transform="matrix(1,0,0,-1,132.518,158.816)"
                             style="font-variant:normal;font-weight:normal;font-size:9.96264px;font-family:CMMI10;-inkscape-font-specification:CMMI10;writing-mode:lr-tb;fill:#000000;fill-opacity:1;fill-rule:nonzero;stroke:none"
                             id="text318"><tspan
                               x="0"
                               y="0"
                               id="tspan316">f</tspan></text><text
                             transform="matrix(1,0,0,-1,138.468,158.816)"
                             style="font-variant:normal;font-weight:normal;font-size:9.96264px;font-family:CMR10;-inkscape-font-specification:CMR10;writing-mode:lr-tb;fill:#000000;fill-opacity:1;fill-rule:nonzero;stroke:none"
                             id="text322"><tspan
                               x="0"
                               y="0"
                               id="tspan320">(</tspan></text><text
                             transform="matrix(1,0,0,-1,142.342,158.816)"
                             style="font-variant:normal;font-weight:normal;font-size:9.96264px;font-family:CMMI10;-inkscape-font-specification:CMMI10;writing-mode:lr-tb;fill:#000000;fill-opacity:1;fill-rule:nonzero;stroke:none"
                             id="text326"><tspan
                               x="0"
                               y="0"
                               id="tspan324">x</tspan></text><text
                             transform="matrix(1,0,0,-1,148.036,158.816)"
                             style="font-variant:normal;font-weight:normal;font-size:9.96264px;font-family:CMR10;-inkscape-font-specification:CMR10;writing-mode:lr-tb;fill:#000000;fill-opacity:1;fill-rule:nonzero;stroke:none"
                             id="text330"><tspan
                               x="0"
                               y="0"
                               id="tspan328">)</tspan></text><g
                             id="g332"
                             transform="translate(132.518,158.816)" /></g></g><g
                         id="g334"
                         transform="translate(-122.832,-142.599)" /></g></g><g
                     id="g336"><g
                       id="g338"><path
                         d="m 7.35779,121.00142 h 69.56418 v 27.7849 H 7.35779 Z"
                         style="fill:#ffffff;fill-opacity:1;fill-rule:nonzero;stroke:#000000;stroke-width:0.3985;stroke-linecap:butt;stroke-linejoin:miter;stroke-miterlimit:10;stroke-dasharray:none;stroke-opacity:1"
                         id="path340" /></g><g
                       id="g342"
                       transform="translate(10.346,128.942)"><g
                         id="g344"
                         transform="translate(0.399,11.9)"><g
                           id="g346"><g
                             id="g348"><path
                               d="m 0,0 h 8.50412 8.50414"
                               style="fill:none;stroke:#00008b;stroke-width:0.79701;stroke-linecap:butt;stroke-linejoin:miter;stroke-miterlimit:10;stroke-dasharray:none;stroke-opacity:1"
                               id="path350" /></g></g><g
                           id="g352"
                           transform="translate(40.296)"><g
                             id="g354"><g
                               id="g356"><g
                                 id="g358"
                                 transform="translate(-11.765,-2.463)"><g
                                   id="g360"><g
                                   id="g362"
                                   transform="translate(-48.962,-154.596)"><text
                                   transform="matrix(1,0,0,-1,48.962,154.596)"
                                   style="font-variant:normal;font-weight:normal;font-size:9.96264px;font-family:CMMI10;-inkscape-font-specification:CMMI10;writing-mode:lr-tb;fill:#000000;fill-opacity:1;fill-rule:nonzero;stroke:none"
                                   id="text366"><tspan
                                   x="0 8.0259027"
                                   y="0"
                                   sodipodi:role="line"
                                   id="tspan364">a&gt;</tspan></text><text
                                   transform="matrix(1,0,0,-1,67.512,154.596)"
                                   style="font-variant:normal;font-weight:normal;font-size:9.96264px;font-family:CMR10;-inkscape-font-specification:CMR10;writing-mode:lr-tb;fill:#000000;fill-opacity:1;fill-rule:nonzero;stroke:none"
                                   id="text370"><tspan
                                   x="0"
                                   y="0"
                                   id="tspan368">1</tspan></text><g
                                   id="g372"
                                   transform="translate(48.962,154.596)" /></g></g><g
                                   id="g374"
                                   transform="translate(11.765,2.463)" /></g></g></g><g
                             id="g376"
                             transform="translate(-40.296,-11.9)"><g
                               id="g378"><g
                                 id="g380"><path
                                   d="m 0,0 h 8.50412 8.50414"
                                   style="fill:none;stroke:#8b0000;stroke-width:0.79701;stroke-linecap:butt;stroke-linejoin:miter;stroke-miterlimit:10;stroke-dasharray:none;stroke-opacity:1"
                                   id="path382" /></g></g><g
                               id="g384"
                               transform="translate(40.296)"><g
                                 id="g386"><g
                                   id="g388"><g
                                   id="g390"
                                   transform="translate(-20.897,-2.463)"><g
                                   id="g392"><g
                                   id="g394"
                                   transform="translate(-39.83,-142.696)"><text
                                   transform="matrix(1,0,0,-1,39.83,142.696)"
                                   style="font-variant:normal;font-weight:normal;font-size:9.96264px;font-family:CMR10;-inkscape-font-specification:CMR10;writing-mode:lr-tb;fill:#000000;fill-opacity:1;fill-rule:nonzero;stroke:none"
                                   id="text398"><tspan
                                   x="0"
                                   y="0"
                                   id="tspan396">0</tspan></text><text
                                   transform="matrix(1,0,0,-1,47.578,142.696)"
                                   style="font-variant:normal;font-weight:normal;font-size:9.96264px;font-family:CMMI10;-inkscape-font-specification:CMMI10;writing-mode:lr-tb;fill:#000000;fill-opacity:1;fill-rule:nonzero;stroke:none"
                                   id="text402"><tspan
                                   x="0 10.508593 18.544458"
                                   y="0"
                                   sodipodi:role="line"
                                   id="tspan400">&lt;a&lt;</tspan></text><text
                                   transform="matrix(1,0,0,-1,76.644,142.696)"
                                   style="font-variant:normal;font-weight:normal;font-size:9.96264px;font-family:CMR10;-inkscape-font-specification:CMR10;writing-mode:lr-tb;fill:#000000;fill-opacity:1;fill-rule:nonzero;stroke:none"
                                   id="text406"><tspan
                                   x="0"
                                   y="0"
                                   id="tspan404">1</tspan></text><g
                                   id="g408"
                                   transform="translate(39.83,142.696)" /></g></g><g
                                   id="g410"
                                   transform="translate(20.897,2.463)" /></g></g></g><g
                                 id="g412"
                                 transform="translate(-40.695)" /></g></g></g></g><g
                         id="g414"
                         transform="translate(-10.346,-128.942)" /></g></g></g></g><g
                 id="g416"
                 transform="translate(-9.686,-16.217)" /></g><g
               id="g418"
               transform="translate(9.686,16.217)" /></g><g
             id="g420" /><g
             id="g422" /></g></g></g></g></svg>
