<?xml version="1.0" encoding="UTF-8" standalone="no"?>
<svg
   xmlns:dc="http://purl.org/dc/elements/1.1/"
   xmlns:cc="http://creativecommons.org/ns#"
   xmlns:rdf="http://www.w3.org/1999/02/22-rdf-syntax-ns#"
   xmlns:svg="http://www.w3.org/2000/svg"
   xmlns="http://www.w3.org/2000/svg"
   xmlns:sodipodi="http://sodipodi.sourceforge.net/DTD/sodipodi-0.dtd"
   xmlns:inkscape="http://www.inkscape.org/namespaces/inkscape"
   version="1.1"
   id="svg2"
   xml:space="preserve"
   width="414.41867"
   height="310.71201"
   viewBox="0 0 414.41867 310.71201"
   sodipodi:docname="fig-transformation-ex.pdf"><metadata
     id="metadata8"><rdf:RDF><cc:Work
         rdf:about=""><dc:format>image/svg+xml</dc:format><dc:type
           rdf:resource="http://purl.org/dc/dcmitype/StillImage" /></cc:Work></rdf:RDF></metadata><defs
     id="defs6"><clipPath
       clipPathUnits="userSpaceOnUse"
       id="clipPath320"><path
         d="M 0,0 H 295.32123 V 210.28896 H 0 Z"
         id="path318" /></clipPath></defs><sodipodi:namedview
     pagecolor="#ffffff"
     bordercolor="#666666"
     borderopacity="1"
     objecttolerance="10"
     gridtolerance="10"
     guidetolerance="10"
     inkscape:pageopacity="0"
     inkscape:pageshadow="2"
     inkscape:window-width="640"
     inkscape:window-height="480"
     id="namedview4" /><g
     id="g10"
     inkscape:groupmode="layer"
     inkscape:label="fig-transformation-ex"
     transform="matrix(1.3333333,0,0,-1.3333333,0,310.712)"><g
       id="g12"
       transform="translate(9.686,16.217)"><g
         id="g14"><g
           id="g16"><g
             id="g18" /><g
             id="g20" /><g
             id="g22"><g
               id="g24" /></g><g
             id="g26" /><g
             id="g28" /><g
             id="g30" /><g
             id="g32" /><g
             id="g34"
             transform="translate(-9.686,-16.217)"><g
               id="g36"
               transform="translate(9.686,16.217)"><g
                 id="g38"><g
                   id="g40"><g
                     id="g42"><g
                       id="g44"><g
                         id="g46"><path
                           d="M 0,0 V 210.28896 M 32.81346,0 V 210.28896 M 98.4404,0 V 210.28896 M 131.25388,0 V 210.28896 M 164.06734,0 V 210.28896 M 196.88081,0 V 210.28896 M 229.69429,0 V 210.28896 M 262.50775,0 V 210.28896 M 295.32123,0 v 210.28896"
                           style="fill:none;stroke:#bfbfbf;stroke-width:0.3985;stroke-linecap:butt;stroke-linejoin:miter;stroke-miterlimit:10;stroke-dasharray:none;stroke-opacity:1"
                           id="path48" /></g></g><g
                       id="g50"><g
                         id="g52"><path
                           d="M 0,42.05779 H 295.32123 M 0,84.11559 H 295.32123 M 0,126.17337 H 295.32123 M 0,168.23117 H 295.32123 M 0,210.28896 h 295.32123"
                           style="fill:none;stroke:#bfbfbf;stroke-width:0.3985;stroke-linecap:butt;stroke-linejoin:miter;stroke-miterlimit:10;stroke-dasharray:none;stroke-opacity:1"
                           id="path54" /></g></g><g
                       id="g56"><g
                         id="g58"><path
                           d="M 0,-2.12604 V 2.12604 M 32.81346,-2.12604 V 2.12604 M 98.4404,-2.12604 v 4.25208 m 32.81348,-4.25208 v 4.25208 m 32.81346,-4.25208 v 4.25208 m 32.81347,-4.25208 v 4.25208 m 32.81348,-4.25208 v 4.25208 m 32.81346,-4.25208 v 4.25208 m 32.81348,-4.25208 v 4.25208"
                           style="fill:none;stroke:#808080;stroke-width:0.19925;stroke-linecap:butt;stroke-linejoin:miter;stroke-miterlimit:10;stroke-dasharray:none;stroke-opacity:1"
                           id="path60" /></g></g><g
                       id="g62"><g
                         id="g64"><path
                           d="m 63.50105,42.05779 h 4.25174 m -4.25174,42.0578 h 4.25174 m -4.25174,42.05778 h 4.25174 m -4.25174,42.0578 h 4.25174 m -4.25174,42.05779 h 4.25174"
                           style="fill:none;stroke:#808080;stroke-width:0.19925;stroke-linecap:butt;stroke-linejoin:miter;stroke-miterlimit:10;stroke-dasharray:none;stroke-opacity:1"
                           id="path66" /></g></g><path
                       d="M 0,0 H 293.3287"
                       style="fill:none;stroke:#000000;stroke-width:0.3985;stroke-linecap:butt;stroke-linejoin:miter;stroke-miterlimit:10;stroke-dasharray:none;stroke-opacity:1"
                       id="path68" /><g
                       id="g70"
                       transform="translate(293.3287)"><g
                         id="g72"><path
                           d="M 1.99252,0 -1.19551,1.59401 0,0 -1.19551,-1.59401"
                           style="fill:#000000;fill-opacity:1;fill-rule:nonzero;stroke:none"
                           id="path74" /></g></g><path
                       d="M 65.62694,0 V 208.29643"
                       style="fill:none;stroke:#000000;stroke-width:0.3985;stroke-linecap:butt;stroke-linejoin:miter;stroke-miterlimit:10;stroke-dasharray:none;stroke-opacity:1"
                       id="path76" /><g
                       id="g78"
                       transform="rotate(90,-71.334745,136.96168)"><g
                         id="g80"><path
                           d="M 1.99252,0 -1.19551,1.59401 0,0 -1.19551,-1.59401"
                           style="fill:#000000;fill-opacity:1;fill-rule:nonzero;stroke:none"
                           id="path82" /></g></g><g
                       id="g84"><g
                         id="g86"
                         transform="translate(-6.365,-12.066)"><g
                           id="g88"><g
                             id="g90"
                             transform="translate(-3.321,-4.151)"><text
                               transform="matrix(1,0,0,-1,3.321,4.151)"
                               style="font-variant:normal;font-weight:normal;font-size:9.96264px;font-family:CMSY10;-inkscape-font-specification:CMSY10;writing-mode:lr-tb;fill:#000000;fill-opacity:1;fill-rule:nonzero;stroke:none"
                               id="text94"><tspan
                                 x="0"
                                 y="0"
                                 id="tspan92">−</tspan></text><text
                               transform="matrix(1,0,0,-1,11.069,4.151)"
                               style="font-variant:normal;font-weight:normal;font-size:9.96264px;font-family:CMR10;-inkscape-font-specification:CMR10;writing-mode:lr-tb;fill:#000000;fill-opacity:1;fill-rule:nonzero;stroke:none"
                               id="text98"><tspan
                                 x="0"
                                 y="0"
                                 id="tspan96">2</tspan></text><g
                               id="g100"
                               transform="translate(3.321,4.151)" /></g></g><g
                           id="g102"
                           transform="translate(6.365,12.066)" /></g></g><g
                       id="g104"><g
                         id="g106"
                         transform="translate(26.448,-12.066)"><g
                           id="g108"><g
                             id="g110"
                             transform="translate(-36.134,-4.151)"><text
                               transform="matrix(1,0,0,-1,36.134,4.151)"
                               style="font-variant:normal;font-weight:normal;font-size:9.96264px;font-family:CMSY10;-inkscape-font-specification:CMSY10;writing-mode:lr-tb;fill:#000000;fill-opacity:1;fill-rule:nonzero;stroke:none"
                               id="text114"><tspan
                                 x="0"
                                 y="0"
                                 id="tspan112">−</tspan></text><text
                               transform="matrix(1,0,0,-1,43.882,4.151)"
                               style="font-variant:normal;font-weight:normal;font-size:9.96264px;font-family:CMR10;-inkscape-font-specification:CMR10;writing-mode:lr-tb;fill:#000000;fill-opacity:1;fill-rule:nonzero;stroke:none"
                               id="text118"><tspan
                                 x="0"
                                 y="0"
                                 id="tspan116">1</tspan></text><g
                               id="g120"
                               transform="translate(36.134,4.151)" /></g></g><g
                           id="g122"
                           transform="translate(-26.448,12.066)" /></g></g><g
                       id="g124"><g
                         id="g126"
                         transform="translate(95.948,-12.066)"><g
                           id="g128"><g
                             id="g130"
                             transform="translate(-105.634,-4.151)"><text
                               transform="matrix(1,0,0,-1,105.634,4.151)"
                               style="font-variant:normal;font-weight:normal;font-size:9.96264px;font-family:CMR10;-inkscape-font-specification:CMR10;writing-mode:lr-tb;fill:#000000;fill-opacity:1;fill-rule:nonzero;stroke:none"
                               id="text134"><tspan
                                 x="0"
                                 y="0"
                                 id="tspan132">1</tspan></text><g
                               id="g136"
                               transform="translate(105.634,4.151)" /></g></g><g
                           id="g138"
                           transform="translate(-95.948,12.066)" /></g></g><g
                       id="g140"><g
                         id="g142"
                         transform="translate(128.761,-12.066)"><g
                           id="g144"><g
                             id="g146"
                             transform="translate(-138.447,-4.151)"><text
                               transform="matrix(1,0,0,-1,138.447,4.151)"
                               style="font-variant:normal;font-weight:normal;font-size:9.96264px;font-family:CMR10;-inkscape-font-specification:CMR10;writing-mode:lr-tb;fill:#000000;fill-opacity:1;fill-rule:nonzero;stroke:none"
                               id="text150"><tspan
                                 x="0"
                                 y="0"
                                 id="tspan148">2</tspan></text><g
                               id="g152"
                               transform="translate(138.447,4.151)" /></g></g><g
                           id="g154"
                           transform="translate(-128.761,12.066)" /></g></g><g
                       id="g156"><g
                         id="g158"
                         transform="translate(161.574,-12.066)"><g
                           id="g160"><g
                             id="g162"
                             transform="translate(-171.26,-4.151)"><text
                               transform="matrix(1,0,0,-1,171.26,4.151)"
                               style="font-variant:normal;font-weight:normal;font-size:9.96264px;font-family:CMR10;-inkscape-font-specification:CMR10;writing-mode:lr-tb;fill:#000000;fill-opacity:1;fill-rule:nonzero;stroke:none"
                               id="text166"><tspan
                                 x="0"
                                 y="0"
                                 id="tspan164">3</tspan></text><g
                               id="g168"
                               transform="translate(171.26,4.151)" /></g></g><g
                           id="g170"
                           transform="translate(-161.574,12.066)" /></g></g><g
                       id="g172"><g
                         id="g174"
                         transform="translate(194.387,-12.066)"><g
                           id="g176"><g
                             id="g178"
                             transform="translate(-204.073,-4.151)"><text
                               transform="matrix(1,0,0,-1,204.073,4.151)"
                               style="font-variant:normal;font-weight:normal;font-size:9.96264px;font-family:CMR10;-inkscape-font-specification:CMR10;writing-mode:lr-tb;fill:#000000;fill-opacity:1;fill-rule:nonzero;stroke:none"
                               id="text182"><tspan
                                 x="0"
                                 y="0"
                                 id="tspan180">4</tspan></text><g
                               id="g184"
                               transform="translate(204.073,4.151)" /></g></g><g
                           id="g186"
                           transform="translate(-194.387,12.066)" /></g></g><g
                       id="g188"><g
                         id="g190"
                         transform="translate(227.2,-12.066)"><g
                           id="g192"><g
                             id="g194"
                             transform="translate(-236.886,-4.151)"><text
                               transform="matrix(1,0,0,-1,236.886,4.151)"
                               style="font-variant:normal;font-weight:normal;font-size:9.96264px;font-family:CMR10;-inkscape-font-specification:CMR10;writing-mode:lr-tb;fill:#000000;fill-opacity:1;fill-rule:nonzero;stroke:none"
                               id="text198"><tspan
                                 x="0"
                                 y="0"
                                 id="tspan196">5</tspan></text><g
                               id="g200"
                               transform="translate(236.886,4.151)" /></g></g><g
                           id="g202"
                           transform="translate(-227.2,12.066)" /></g></g><g
                       id="g204"><g
                         id="g206"
                         transform="translate(260.013,-12.066)"><g
                           id="g208"><g
                             id="g210"
                             transform="translate(-269.699,-4.151)"><text
                               transform="matrix(1,0,0,-1,269.699,4.151)"
                               style="font-variant:normal;font-weight:normal;font-size:9.96264px;font-family:CMR10;-inkscape-font-specification:CMR10;writing-mode:lr-tb;fill:#000000;fill-opacity:1;fill-rule:nonzero;stroke:none"
                               id="text214"><tspan
                                 x="0"
                                 y="0"
                                 id="tspan212">6</tspan></text><g
                               id="g216"
                               transform="translate(269.699,4.151)" /></g></g><g
                           id="g218"
                           transform="translate(-260.013,12.066)" /></g></g><g
                       id="g220"><g
                         id="g222"
                         transform="translate(292.826,-12.066)"><g
                           id="g224"><g
                             id="g226"
                             transform="translate(-302.512,-4.151)"><text
                               transform="matrix(1,0,0,-1,302.512,4.151)"
                               style="font-variant:normal;font-weight:normal;font-size:9.96264px;font-family:CMR10;-inkscape-font-specification:CMR10;writing-mode:lr-tb;fill:#000000;fill-opacity:1;fill-rule:nonzero;stroke:none"
                               id="text230"><tspan
                                 x="0"
                                 y="0"
                                 id="tspan228">7</tspan></text><g
                               id="g232"
                               transform="translate(302.512,4.151)" /></g></g><g
                           id="g234"
                           transform="translate(-292.826,12.066)" /></g></g><g
                       id="g236"><g
                         id="g238"
                         transform="translate(54.999,38.847)"><g
                           id="g240"><g
                             id="g242"
                             transform="translate(-64.685,-55.064)"><text
                               transform="matrix(1,0,0,-1,64.685,55.064)"
                               style="font-variant:normal;font-weight:normal;font-size:9.96264px;font-family:CMR10;-inkscape-font-specification:CMR10;writing-mode:lr-tb;fill:#000000;fill-opacity:1;fill-rule:nonzero;stroke:none"
                               id="text246"><tspan
                                 x="0"
                                 y="0"
                                 id="tspan244">2</tspan></text><g
                               id="g248"
                               transform="translate(64.685,55.064)" /></g></g><g
                           id="g250"
                           transform="translate(-54.999,-38.847)" /></g></g><g
                       id="g252"><g
                         id="g254"
                         transform="translate(54.999,80.904)"><g
                           id="g256"><g
                             id="g258"
                             transform="translate(-64.685,-97.121)"><text
                               transform="matrix(1,0,0,-1,64.685,97.121)"
                               style="font-variant:normal;font-weight:normal;font-size:9.96264px;font-family:CMR10;-inkscape-font-specification:CMR10;writing-mode:lr-tb;fill:#000000;fill-opacity:1;fill-rule:nonzero;stroke:none"
                               id="text262"><tspan
                                 x="0"
                                 y="0"
                                 id="tspan260">4</tspan></text><g
                               id="g264"
                               transform="translate(64.685,97.121)" /></g></g><g
                           id="g266"
                           transform="translate(-54.999,-80.904)" /></g></g><g
                       id="g268"><g
                         id="g270"
                         transform="translate(54.999,122.961)"><g
                           id="g272"><g
                             id="g274"
                             transform="translate(-64.685,-139.178)"><text
                               transform="matrix(1,0,0,-1,64.685,139.178)"
                               style="font-variant:normal;font-weight:normal;font-size:9.96264px;font-family:CMR10;-inkscape-font-specification:CMR10;writing-mode:lr-tb;fill:#000000;fill-opacity:1;fill-rule:nonzero;stroke:none"
                               id="text278"><tspan
                                 x="0"
                                 y="0"
                                 id="tspan276">6</tspan></text><g
                               id="g280"
                               transform="translate(64.685,139.178)" /></g></g><g
                           id="g282"
                           transform="translate(-54.999,-122.961)" /></g></g><g
                       id="g284"><g
                         id="g286"
                         transform="translate(54.999,165.019)"><g
                           id="g288"><g
                             id="g290"
                             transform="translate(-64.685,-181.236)"><text
                               transform="matrix(1,0,0,-1,64.685,181.236)"
                               style="font-variant:normal;font-weight:normal;font-size:9.96264px;font-family:CMR10;-inkscape-font-specification:CMR10;writing-mode:lr-tb;fill:#000000;fill-opacity:1;fill-rule:nonzero;stroke:none"
                               id="text294"><tspan
                                 x="0"
                                 y="0"
                                 id="tspan292">8</tspan></text><g
                               id="g296"
                               transform="translate(64.685,181.236)" /></g></g><g
                           id="g298"
                           transform="translate(-54.999,-165.019)" /></g></g><g
                       id="g300"><g
                         id="g302"
                         transform="translate(50.017,207.076)"><g
                           id="g304"><g
                             id="g306"
                             transform="translate(-59.703,-223.293)"><text
                               transform="matrix(1,0,0,-1,59.703,223.293)"
                               style="font-variant:normal;font-weight:normal;font-size:9.96264px;font-family:CMR10;-inkscape-font-specification:CMR10;writing-mode:lr-tb;fill:#000000;fill-opacity:1;fill-rule:nonzero;stroke:none"
                               id="text310"><tspan
                                 x="0 4.9813199"
                                 y="0"
                                 sodipodi:role="line"
                                 id="tspan308">10</tspan></text><g
                               id="g312"
                               transform="translate(59.703,223.293)" /></g></g><g
                           id="g314"
                           transform="translate(-50.017,-207.076)" /></g></g><g
                       id="g316"
                       clip-path="url(#clipPath320)"><g
                         id="g322"><path
                           d="M 0,2.84593 1.39207,2.96928 2.78416,3.09796 4.17624,3.23222 5.56833,3.3723 6.9604,3.51845 8.3525,3.67091 9.74457,3.83 l 1.39209,0.16599 1.39207,0.17317 1.39209,0.18068 1.39208,0.18851 1.39209,0.19668 1.39207,0.2052 1.39208,0.2141 1.39209,0.22336 1.39209,0.23306 1.39208,0.24316 1.39208,0.25369 1.39209,0.26468 1.39207,0.27616 1.39209,0.28813 1.39208,0.3006 1.39209,0.31364 1.39207,0.32723 1.39208,0.34141 1.39209,0.3562 1.39207,0.37165 1.39209,0.38775 1.39208,0.40456 1.39209,0.42209 1.39207,0.44037 1.39209,0.45945 1.39209,0.47939 1.39209,0.50015 1.39208,0.52182 1.39208,0.54444 1.39208,0.56802 1.39207,0.59265 1.39209,0.61835 1.39208,0.64512 1.39209,0.67308 1.39207,0.70226 1.39209,0.73268 1.39208,0.76445 1.39208,0.79757 1.39208,0.83215 1.39209,0.86819 1.39209,0.90584 1.39209,0.94507 1.39208,0.98603 1.39207,1.02878 1.39209,1.07335 1.39207,1.11986 1.39209,1.1684 1.39208,1.21903 1.39209,1.27187 1.39208,1.32698 1.39208,1.38449 1.39208,1.44449 1.39209,1.50708 1.39207,1.5724 1.39209,1.64055 1.39208,1.71164 1.39209,1.78583 1.39209,1.86322 1.39207,1.94394 1.39209,2.02821 1.39207,2.11609 1.3921,2.20783 1.39207,2.30348 1.39209,2.4033 1.39207,2.50747 1.39209,2.61611 1.39208,2.72952 1.39209,2.84779 1.39207,2.97122 1.39208,3.09996 1.39209,3.23431 1.39207,3.37448 1.3921,3.52071 1.39208,3.67331 1.39209,3.83247 1.39208,3.99858 1.39209,4.17187 1.39207,4.35265 1.39209,4.54129 1.39208,4.7381 1.39207,4.94342 1.39209,5.15767 1.39207,5.38118 1.39209,5.61438 1.39208,5.8577 1.39209,6.11154 1.39207,6.37642 1.39209,6.65272 1.39209,6.94106 1.39209,7.24187 1.39208,7.55568 1.39209,7.88314"
                           style="fill:none;stroke:#000000;stroke-width:0.79701;stroke-linecap:butt;stroke-linejoin:miter;stroke-miterlimit:10;stroke-dasharray:2.98883, 2.98883;stroke-dashoffset:0;stroke-opacity:1"
                           id="path324" /></g><g
                         id="g326"><path
                           d="m 0,0.1417 2.38641,0.01067 2.38645,0.01149 2.38641,0.01236 2.38643,0.01331 2.38643,0.0143 2.38643,0.01538 2.38643,0.01652 2.38643,0.01778 2.38641,0.01913 2.38644,0.02057 2.38642,0.02211 2.38643,0.02379 2.38642,0.02559 2.38643,0.02751 2.38643,0.02959 2.38643,0.03181 2.38643,0.03424 2.38641,0.03679 2.38645,0.03958 2.38641,0.04258 2.38644,0.04577 2.38642,0.04923 2.38643,0.05295 2.38643,0.05693 2.38643,0.06123 2.38641,0.06586 2.38644,0.0708 2.38643,0.07617 2.38642,0.08191 2.38644,0.08807 2.38641,0.09473 2.38645,0.10188 2.38641,0.10956 2.38643,0.11781 2.38643,0.12673 2.38643,0.13627 2.38641,0.14655 2.38644,0.15761 2.38642,0.16949 2.38643,0.18228 2.38642,0.19603 2.38643,0.21082 2.38643,0.22674 2.38643,0.24382 2.38643,0.26223 2.38643,0.28201 2.38643,0.30328 2.38642,0.32616 2.38644,0.35075 2.38641,0.37722 2.38643,0.40568 2.38643,0.43628 2.38643,0.46919 2.38641,0.50461 2.38645,0.54265 2.38642,0.58359 2.38643,0.62761 2.38643,0.67497 2.38642,0.72587 2.38644,0.78063 2.38641,0.83952 2.38643,0.90286 2.38643,0.97097 2.38643,1.04422 2.38641,1.12298 2.38645,1.20769 2.38641,1.29881 2.38643,1.39678 2.38643,1.50215 2.38643,1.61546 2.38644,1.73735 2.38641,1.86838 2.38643,2.00936 2.38643,2.16091 2.38643,2.32395 2.38641,2.49922 2.38645,2.68779 2.38641,2.89053 2.38643,3.10861 2.38643,3.3431 2.38643,3.59529 2.38641,3.86652 2.38645,4.15817 2.38642,4.47188 2.38643,4.80922 2.38643,5.17202 2.38642,5.56215 2.38644,5.98178 2.38641,6.43302 2.38643,6.9183 2.38643,7.4402 2.38643,8.00148 2.38641,8.60507 2.38645,9.25423 2.38641,9.95233 2.38645,10.70311 2.38641,11.51053 2.38643,12.37885 2.38644,13.31266"
                           style="fill:none;stroke:#00008b;stroke-width:0.79701;stroke-linecap:butt;stroke-linejoin:miter;stroke-miterlimit:10;stroke-dasharray:0.79701, 1.99255;stroke-dashoffset:0;stroke-opacity:1"
                           id="path328" /></g><g
                         id="g330"><path
                           d="m 0,105.28625 2.8173,0.0127 2.81731,0.0138 2.81732,0.0151 2.81731,0.0164 2.81731,0.0179 2.8173,0.0195 2.81733,0.0213 2.8173,0.0232 2.81731,0.0253 2.81731,0.0275 2.8173,0.03 2.81732,0.0327 2.81731,0.0356 2.81731,0.0388 2.8173,0.0423 2.81731,0.046 2.81732,0.0502 2.81731,0.0547 2.8173,0.0596 2.81731,0.0649 2.81732,0.0707 2.81731,0.0771 2.81731,0.084 2.8173,0.0915 2.81731,0.0997 2.81732,0.10869 2.81731,0.11841 2.8173,0.12901 2.81731,0.14061 2.81732,0.15318 2.81731,0.16694 2.81731,0.18191 2.8173,0.19819 2.81731,0.21598 2.81732,0.23535 2.81731,0.25644 2.8173,0.27943 2.81731,0.30448 2.81731,0.33177 2.81732,0.36151 2.8173,0.39395 2.81731,0.42925 2.81731,0.46772 2.81732,0.50966 2.81731,0.55536 2.8173,0.60515 2.81731,0.65941 2.81731,0.71852 2.81732,0.78292 2.81731,0.85314 2.8173,0.9296 2.8173,1.01295 2.81731,1.10378 2.81733,1.20271 2.8173,1.31055 2.81731,1.42804 2.8173,1.55606 2.81733,1.69558 2.8173,1.84759 2.81731,2.01322 2.81731,2.19371 2.8173,2.39038 2.81732,2.60469 2.81731,2.83822 2.81731,3.09265 2.8173,3.36992 2.81733,3.67204 2.8173,4.00125 2.81731,4.35997 2.81731,4.75084 2.8173,5.17679 2.81732,5.64088 2.81731,6.14661 2.81731,6.69765 2.8173,7.29811 2.81731,7.95241 2.81732,8.66537 2.81731,9.44223 2.8173,10.28874 2.81731,11.21115 2.81732,12.21627 2.81731,13.31147 2.81731,14.50489 2.8173,15.80528 2.81731,17.22224 2.81732,18.76627 2.81731,20.4487 2.8173,22.28197 2.81731,24.27961 2.81731,26.45633 2.81732,28.82819 2.8173,31.4127 2.81731,34.22893 2.81731,37.29761 2.81732,40.64145 2.81731,44.28503 2.8173,48.25527 2.81731,52.58149 2.81731,57.29551"
                           style="fill:none;stroke:#8b0000;stroke-width:1.19553;stroke-linecap:butt;stroke-linejoin:miter;stroke-miterlimit:10;stroke-dasharray:none;stroke-opacity:1"
                           id="path332" /></g><g
                         id="g334"><path
                           d="M 0,105.14447 H 295.32123"
                           style="fill:none;stroke:#bf0040;stroke-width:0.3985;stroke-linecap:butt;stroke-linejoin:miter;stroke-miterlimit:10;stroke-dasharray:2.98883, 2.98883;stroke-dashoffset:0;stroke-opacity:1"
                           id="path336" /><g
                           id="g338"><g
                             id="g340"
                             transform="translate(17.78,110.6)"><g
                               id="g342"><g
                                 id="g344"
                                 transform="translate(-27.466,-126.817)"><text
                                   transform="matrix(1,0,0,-1,27.466,126.817)"
                                   style="font-variant:normal;font-weight:normal;font-size:9.96264px;font-family:CMMI10;-inkscape-font-specification:CMMI10;writing-mode:lr-tb;fill:#bf0040;fill-opacity:1;fill-rule:nonzero;stroke:none"
                                   id="text348"><tspan
                                   x="0"
                                   y="0"
                                   id="tspan346">y</tspan></text><text
                                   transform="matrix(1,0,0,-1,35.475,126.817)"
                                   style="font-variant:normal;font-weight:normal;font-size:9.96264px;font-family:CMR10;-inkscape-font-specification:CMR10;writing-mode:lr-tb;fill:#bf0040;fill-opacity:1;fill-rule:nonzero;stroke:none"
                                   id="text352"><tspan
                                   x="0 10.508593"
                                   y="0"
                                   sodipodi:role="line"
                                   id="tspan350">=5</tspan></text><g
                                   id="g354"
                                   transform="translate(27.466,126.817)" /></g></g><g
                               id="g356"
                               transform="translate(-17.78,-110.6)" /></g></g></g><g
                         id="g358"><g
                           id="g360"><g
                             id="g362"
                             transform="translate(138.406,132.182)"><g
                               id="g364"><g
                                 id="g366"
                                 transform="translate(-148.092,-148.399)"><text
                                   transform="matrix(1,0,0,-1,148.092,148.399)"
                                   style="font-variant:normal;font-weight:normal;font-size:9.96264px;font-family:CMR10;-inkscape-font-specification:CMR10;writing-mode:lr-tb;fill:#8b0000;fill-opacity:1;fill-rule:nonzero;stroke:none"
                                   id="text370"><tspan
                                   x="0 3.8744707"
                                   y="0"
                                   sodipodi:role="line"
                                   id="tspan368">(3</tspan></text><text
                                   transform="matrix(1,0,0,-1,156.948,148.399)"
                                   style="font-variant:normal;font-weight:normal;font-size:9.96264px;font-family:CMMI10;-inkscape-font-specification:CMMI10;writing-mode:lr-tb;fill:#8b0000;fill-opacity:1;fill-rule:nonzero;stroke:none"
                                   id="text374"><tspan
                                   x="0"
                                   y="0"
                                   id="tspan372">,</tspan></text><text
                                   transform="matrix(1,0,0,-1,161.375,148.399)"
                                   style="font-variant:normal;font-weight:normal;font-size:9.96264px;font-family:CMR10;-inkscape-font-specification:CMR10;writing-mode:lr-tb;fill:#8b0000;fill-opacity:1;fill-rule:nonzero;stroke:none"
                                   id="text378"><tspan
                                   x="0 4.9813199"
                                   y="0"
                                   sodipodi:role="line"
                                   id="tspan376">6)</tspan></text><g
                                   id="g380"
                                   transform="translate(148.092,148.399)" /></g></g><g
                               id="g382"
                               transform="translate(-138.406,-132.182)" /></g></g></g></g></g><g
                     id="g384"><path
                       d="m 166.05942,126.17348 c 0,1.10048 -0.89209,1.99255 -1.99256,1.99255 -1.10048,0 -1.99255,-0.89207 -1.99255,-1.99255 0,-1.10047 0.89207,-1.99256 1.99255,-1.99256 1.10047,0 1.99256,0.89209 1.99256,1.99256 z"
                       style="fill:#8b0000;fill-opacity:1;fill-rule:nonzero;stroke:#8b0000;stroke-width:0.3985;stroke-linecap:butt;stroke-linejoin:miter;stroke-miterlimit:10;stroke-dasharray:none;stroke-opacity:1"
                       id="path386" /></g><g
                     id="g388"><g
                       id="g390"
                       transform="translate(286.103,3.52)"><g
                         id="g392"><g
                           id="g394"
                           transform="translate(-295.789,-19.737)"><text
                             transform="matrix(1,0,0,-1,295.789,19.737)"
                             style="font-variant:normal;font-weight:normal;font-size:9.96264px;font-family:CMMI10;-inkscape-font-specification:CMMI10;writing-mode:lr-tb;fill:#000000;fill-opacity:1;fill-rule:nonzero;stroke:none"
                             id="text398"><tspan
                               x="0"
                               y="0"
                               id="tspan396">x</tspan></text><g
                             id="g400"
                             transform="translate(295.789,19.737)" /></g></g><g
                         id="g402"
                         transform="translate(-286.103,-3.52)" /></g></g><g
                     id="g404"><g
                       id="g406"
                       transform="translate(69.145,202.477)"><g
                         id="g408"><g
                           id="g410"
                           transform="translate(-78.831,-218.694)"><text
                             transform="matrix(1,0,0,-1,78.831,218.694)"
                             style="font-variant:normal;font-weight:normal;font-size:9.96264px;font-family:CMMI10;-inkscape-font-specification:CMMI10;writing-mode:lr-tb;fill:#000000;fill-opacity:1;fill-rule:nonzero;stroke:none"
                             id="text414"><tspan
                               x="0"
                               y="0"
                               id="tspan412">y</tspan></text><g
                             id="g416"
                             transform="translate(78.831,218.694)" /></g></g><g
                         id="g418"
                         transform="translate(-69.145,-202.477)" /></g></g></g></g><g
                 id="g420"
                 transform="translate(-9.686,-16.217)" /></g><g
               id="g422"
               transform="translate(9.686,16.217)" /></g><g
             id="g424" /><g
             id="g426" /></g></g></g></g></svg>
