<?xml version="1.0" encoding="UTF-8" standalone="no"?>
<svg
   xmlns:dc="http://purl.org/dc/elements/1.1/"
   xmlns:cc="http://creativecommons.org/ns#"
   xmlns:rdf="http://www.w3.org/1999/02/22-rdf-syntax-ns#"
   xmlns:svg="http://www.w3.org/2000/svg"
   xmlns="http://www.w3.org/2000/svg"
   xmlns:sodipodi="http://sodipodi.sourceforge.net/DTD/sodipodi-0.dtd"
   xmlns:inkscape="http://www.inkscape.org/namespaces/inkscape"
   version="1.1"
   id="svg2"
   xml:space="preserve"
   width="414.41733"
   height="336.14401"
   viewBox="0 0 414.41733 336.14401"
   sodipodi:docname="fig-transformation-one-third.pdf"><metadata
     id="metadata8"><rdf:RDF><cc:Work
         rdf:about=""><dc:format>image/svg+xml</dc:format><dc:type
           rdf:resource="http://purl.org/dc/dcmitype/StillImage" /></cc:Work></rdf:RDF></metadata><defs
     id="defs6"><clipPath
       clipPathUnits="userSpaceOnUse"
       id="clipPath412"><path
         d="M 0,0 H 295.3197 V 238.63457 H 0 Z"
         id="path410" /></clipPath></defs><sodipodi:namedview
     pagecolor="#ffffff"
     bordercolor="#666666"
     borderopacity="1"
     objecttolerance="10"
     gridtolerance="10"
     guidetolerance="10"
     inkscape:pageopacity="0"
     inkscape:pageshadow="2"
     inkscape:window-width="640"
     inkscape:window-height="480"
     id="namedview4" /><g
     id="g10"
     inkscape:groupmode="layer"
     inkscape:label="fig-transformation-one-third"
     transform="matrix(1.3333333,0,0,-1.3333333,0,336.144)"><g
       id="g12"
       transform="translate(9.686,6.946)"><g
         id="g14"><g
           id="g16"><g
             id="g18" /><g
             id="g20" /><g
             id="g22"><g
               id="g24" /></g><g
             id="g26" /><g
             id="g28" /><g
             id="g30" /><g
             id="g32" /><g
             id="g34"
             transform="translate(-9.686,-6.946)"><g
               id="g36"
               transform="translate(9.686,6.946)"><g
                 id="g38"><g
                   id="g40"><g
                     id="g42"><g
                       id="g44"><g
                         id="g46"><path
                           d="M 0,0 V 238.63457 M 36.91496,0 V 238.63457 M 73.82993,0 V 238.63457 M 110.74489,0 V 238.63457 M 184.57481,0 V 238.63457 M 221.48978,0 V 238.63457 M 258.40474,0 V 238.63457 M 295.3197,0 v 238.63457"
                           style="fill:none;stroke:#bfbfbf;stroke-width:0.3985;stroke-linecap:butt;stroke-linejoin:miter;stroke-miterlimit:10;stroke-dasharray:none;stroke-opacity:1"
                           id="path48" /></g></g><g
                       id="g50"><g
                         id="g52"><path
                           d="M 0,0 H 295.3197 M 0,23.86345 H 295.3197 M 0,47.72691 H 295.3197 M 0,71.59036 H 295.3197 M 0,95.45383 H 295.3197 M 0,143.18074 H 295.3197 M 0,167.04419 H 295.3197 M 0,190.90765 H 295.3197 M 0,214.77112 H 295.3197 M 0,238.63457 h 295.3197"
                           style="fill:none;stroke:#bfbfbf;stroke-width:0.3985;stroke-linecap:butt;stroke-linejoin:miter;stroke-miterlimit:10;stroke-dasharray:none;stroke-opacity:1"
                           id="path54" /></g></g><g
                       id="g56"><g
                         id="g58"><path
                           d="m 0,117.19106 v 4.25244 m 36.91496,-4.25244 v 4.25244 m 36.91497,-4.25244 v 4.25244 m 36.91496,-4.25244 v 4.25244 m 73.82992,-4.25244 v 4.25244 m 36.91497,-4.25244 v 4.25244 m 36.91496,-4.25244 v 4.25244 m 36.91496,-4.25244 v 4.25244"
                           style="fill:none;stroke:#808080;stroke-width:0.19925;stroke-linecap:butt;stroke-linejoin:miter;stroke-miterlimit:10;stroke-dasharray:none;stroke-opacity:1"
                           id="path60" /></g></g><g
                       id="g62"><g
                         id="g64"><path
                           d="m 145.53384,0 h 4.252 m -4.252,23.86345 h 4.252 m -4.252,23.86346 h 4.252 m -4.252,23.86345 h 4.252 m -4.252,23.86347 h 4.252 m -4.252,47.72691 h 4.252 m -4.252,23.86345 h 4.252 m -4.252,23.86346 h 4.252 m -4.252,23.86347 h 4.252 m -4.252,23.86345 h 4.252"
                           style="fill:none;stroke:#808080;stroke-width:0.19925;stroke-linecap:butt;stroke-linejoin:miter;stroke-miterlimit:10;stroke-dasharray:none;stroke-opacity:1"
                           id="path66" /></g></g><path
                       d="M 0,119.31728 H 293.32718"
                       style="fill:none;stroke:#000000;stroke-width:0.3985;stroke-linecap:butt;stroke-linejoin:miter;stroke-miterlimit:10;stroke-dasharray:none;stroke-opacity:1"
                       id="path68" /><g
                       id="g70"
                       transform="translate(293.32718,119.31728)"><g
                         id="g72"><path
                           d="M 1.99252,0 -1.19551,1.59401 0,0 -1.19551,-1.59401"
                           style="fill:#000000;fill-opacity:1;fill-rule:nonzero;stroke:none"
                           id="path74" /></g></g><path
                       d="M 147.65985,0 V 236.64204"
                       style="fill:none;stroke:#000000;stroke-width:0.3985;stroke-linecap:butt;stroke-linejoin:miter;stroke-miterlimit:10;stroke-dasharray:none;stroke-opacity:1"
                       id="path76" /><g
                       id="g78"
                       transform="rotate(90,-44.491095,192.15094)"><g
                         id="g80"><path
                           d="M 1.99252,0 -1.19551,1.59401 0,0 -1.19551,-1.59401"
                           style="fill:#000000;fill-opacity:1;fill-rule:nonzero;stroke:none"
                           id="path82" /></g></g><g
                       id="g84"><g
                         id="g86"
                         transform="translate(-6.365,107.249)"><g
                           id="g88"><g
                             id="g90"
                             transform="translate(-3.321,-114.195)"><text
                               transform="matrix(1,0,0,-1,3.321,114.195)"
                               style="font-variant:normal;font-weight:normal;font-size:9.96264px;font-family:CMSY10;-inkscape-font-specification:CMSY10;writing-mode:lr-tb;fill:#000000;fill-opacity:1;fill-rule:nonzero;stroke:none"
                               id="text94"><tspan
                                 x="0"
                                 y="0"
                                 id="tspan92">−</tspan></text><text
                               transform="matrix(1,0,0,-1,11.069,114.195)"
                               style="font-variant:normal;font-weight:normal;font-size:9.96264px;font-family:CMR10;-inkscape-font-specification:CMR10;writing-mode:lr-tb;fill:#000000;fill-opacity:1;fill-rule:nonzero;stroke:none"
                               id="text98"><tspan
                                 x="0"
                                 y="0"
                                 id="tspan96">4</tspan></text><g
                               id="g100"
                               transform="translate(3.321,114.195)" /></g></g><g
                           id="g102"
                           transform="translate(6.365,-107.249)" /></g></g><g
                       id="g104"><g
                         id="g106"
                         transform="translate(30.549,107.249)"><g
                           id="g108"><g
                             id="g110"
                             transform="translate(-40.235,-114.195)"><text
                               transform="matrix(1,0,0,-1,40.235,114.195)"
                               style="font-variant:normal;font-weight:normal;font-size:9.96264px;font-family:CMSY10;-inkscape-font-specification:CMSY10;writing-mode:lr-tb;fill:#000000;fill-opacity:1;fill-rule:nonzero;stroke:none"
                               id="text114"><tspan
                                 x="0"
                                 y="0"
                                 id="tspan112">−</tspan></text><text
                               transform="matrix(1,0,0,-1,47.984,114.195)"
                               style="font-variant:normal;font-weight:normal;font-size:9.96264px;font-family:CMR10;-inkscape-font-specification:CMR10;writing-mode:lr-tb;fill:#000000;fill-opacity:1;fill-rule:nonzero;stroke:none"
                               id="text118"><tspan
                                 x="0"
                                 y="0"
                                 id="tspan116">3</tspan></text><g
                               id="g120"
                               transform="translate(40.235,114.195)" /></g></g><g
                           id="g122"
                           transform="translate(-30.549,-107.249)" /></g></g><g
                       id="g124"><g
                         id="g126"
                         transform="translate(67.463,107.249)"><g
                           id="g128"><g
                             id="g130"
                             transform="translate(-77.149,-114.195)"><text
                               transform="matrix(1,0,0,-1,77.149,114.195)"
                               style="font-variant:normal;font-weight:normal;font-size:9.96264px;font-family:CMSY10;-inkscape-font-specification:CMSY10;writing-mode:lr-tb;fill:#000000;fill-opacity:1;fill-rule:nonzero;stroke:none"
                               id="text134"><tspan
                                 x="0"
                                 y="0"
                                 id="tspan132">−</tspan></text><text
                               transform="matrix(1,0,0,-1,84.898,114.195)"
                               style="font-variant:normal;font-weight:normal;font-size:9.96264px;font-family:CMR10;-inkscape-font-specification:CMR10;writing-mode:lr-tb;fill:#000000;fill-opacity:1;fill-rule:nonzero;stroke:none"
                               id="text138"><tspan
                                 x="0"
                                 y="0"
                                 id="tspan136">2</tspan></text><g
                               id="g140"
                               transform="translate(77.149,114.195)" /></g></g><g
                           id="g142"
                           transform="translate(-67.463,-107.249)" /></g></g><g
                       id="g144"><g
                         id="g146"
                         transform="translate(104.378,107.249)"><g
                           id="g148"><g
                             id="g150"
                             transform="translate(-114.064,-114.195)"><text
                               transform="matrix(1,0,0,-1,114.064,114.195)"
                               style="font-variant:normal;font-weight:normal;font-size:9.96264px;font-family:CMSY10;-inkscape-font-specification:CMSY10;writing-mode:lr-tb;fill:#000000;fill-opacity:1;fill-rule:nonzero;stroke:none"
                               id="text154"><tspan
                                 x="0"
                                 y="0"
                                 id="tspan152">−</tspan></text><text
                               transform="matrix(1,0,0,-1,121.813,114.195)"
                               style="font-variant:normal;font-weight:normal;font-size:9.96264px;font-family:CMR10;-inkscape-font-specification:CMR10;writing-mode:lr-tb;fill:#000000;fill-opacity:1;fill-rule:nonzero;stroke:none"
                               id="text158"><tspan
                                 x="0"
                                 y="0"
                                 id="tspan156">1</tspan></text><g
                               id="g160"
                               transform="translate(114.064,114.195)" /></g></g><g
                           id="g162"
                           transform="translate(-104.378,-107.249)" /></g></g><g
                       id="g164"><g
                         id="g166"
                         transform="translate(182.081,107.249)"><g
                           id="g168"><g
                             id="g170"
                             transform="translate(-191.767,-114.195)"><text
                               transform="matrix(1,0,0,-1,191.767,114.195)"
                               style="font-variant:normal;font-weight:normal;font-size:9.96264px;font-family:CMR10;-inkscape-font-specification:CMR10;writing-mode:lr-tb;fill:#000000;fill-opacity:1;fill-rule:nonzero;stroke:none"
                               id="text174"><tspan
                                 x="0"
                                 y="0"
                                 id="tspan172">1</tspan></text><g
                               id="g176"
                               transform="translate(191.767,114.195)" /></g></g><g
                           id="g178"
                           transform="translate(-182.081,-107.249)" /></g></g><g
                       id="g180"><g
                         id="g182"
                         transform="translate(218.996,107.249)"><g
                           id="g184"><g
                             id="g186"
                             transform="translate(-228.682,-114.195)"><text
                               transform="matrix(1,0,0,-1,228.682,114.195)"
                               style="font-variant:normal;font-weight:normal;font-size:9.96264px;font-family:CMR10;-inkscape-font-specification:CMR10;writing-mode:lr-tb;fill:#000000;fill-opacity:1;fill-rule:nonzero;stroke:none"
                               id="text190"><tspan
                                 x="0"
                                 y="0"
                                 id="tspan188">2</tspan></text><g
                               id="g192"
                               transform="translate(228.682,114.195)" /></g></g><g
                           id="g194"
                           transform="translate(-218.996,-107.249)" /></g></g><g
                       id="g196"><g
                         id="g198"
                         transform="translate(255.91,107.249)"><g
                           id="g200"><g
                             id="g202"
                             transform="translate(-265.596,-114.195)"><text
                               transform="matrix(1,0,0,-1,265.596,114.195)"
                               style="font-variant:normal;font-weight:normal;font-size:9.96264px;font-family:CMR10;-inkscape-font-specification:CMR10;writing-mode:lr-tb;fill:#000000;fill-opacity:1;fill-rule:nonzero;stroke:none"
                               id="text206"><tspan
                                 x="0"
                                 y="0"
                                 id="tspan204">3</tspan></text><g
                               id="g208"
                               transform="translate(265.596,114.195)" /></g></g><g
                           id="g210"
                           transform="translate(-255.91,-107.249)" /></g></g><g
                       id="g212"><g
                         id="g214"
                         transform="translate(292.825,107.249)"><g
                           id="g216"><g
                             id="g218"
                             transform="translate(-302.511,-114.195)"><text
                               transform="matrix(1,0,0,-1,302.511,114.195)"
                               style="font-variant:normal;font-weight:normal;font-size:9.96264px;font-family:CMR10;-inkscape-font-specification:CMR10;writing-mode:lr-tb;fill:#000000;fill-opacity:1;fill-rule:nonzero;stroke:none"
                               id="text222"><tspan
                                 x="0"
                                 y="0"
                                 id="tspan220">4</tspan></text><g
                               id="g224"
                               transform="translate(302.511,114.195)" /></g></g><g
                           id="g226"
                           transform="translate(-292.825,-107.249)" /></g></g><g
                       id="g228"><g
                         id="g230"
                         transform="translate(124.3,-2.795)"><g
                           id="g232"><g
                             id="g234"
                             transform="translate(-133.986,-4.151)"><text
                               transform="matrix(1,0,0,-1,133.986,4.151)"
                               style="font-variant:normal;font-weight:normal;font-size:9.96264px;font-family:CMSY10;-inkscape-font-specification:CMSY10;writing-mode:lr-tb;fill:#000000;fill-opacity:1;fill-rule:nonzero;stroke:none"
                               id="text238"><tspan
                                 x="0"
                                 y="0"
                                 id="tspan236">−</tspan></text><text
                               transform="matrix(1,0,0,-1,141.735,4.151)"
                               style="font-variant:normal;font-weight:normal;font-size:9.96264px;font-family:CMR10;-inkscape-font-specification:CMR10;writing-mode:lr-tb;fill:#000000;fill-opacity:1;fill-rule:nonzero;stroke:none"
                               id="text242"><tspan
                                 x="0 4.9813199"
                                 y="0"
                                 sodipodi:role="line"
                                 id="tspan240">10</tspan></text><g
                               id="g244"
                               transform="translate(133.986,4.151)" /></g></g><g
                           id="g246"
                           transform="translate(-124.3,2.795)" /></g></g><g
                       id="g248"><g
                         id="g250"
                         transform="translate(129.282,21.068)"><g
                           id="g252"><g
                             id="g254"
                             transform="translate(-138.968,-28.014)"><text
                               transform="matrix(1,0,0,-1,138.968,28.014)"
                               style="font-variant:normal;font-weight:normal;font-size:9.96264px;font-family:CMSY10;-inkscape-font-specification:CMSY10;writing-mode:lr-tb;fill:#000000;fill-opacity:1;fill-rule:nonzero;stroke:none"
                               id="text258"><tspan
                                 x="0"
                                 y="0"
                                 id="tspan256">−</tspan></text><text
                               transform="matrix(1,0,0,-1,146.716,28.014)"
                               style="font-variant:normal;font-weight:normal;font-size:9.96264px;font-family:CMR10;-inkscape-font-specification:CMR10;writing-mode:lr-tb;fill:#000000;fill-opacity:1;fill-rule:nonzero;stroke:none"
                               id="text262"><tspan
                                 x="0"
                                 y="0"
                                 id="tspan260">8</tspan></text><g
                               id="g264"
                               transform="translate(138.968,28.014)" /></g></g><g
                           id="g266"
                           transform="translate(-129.282,-21.068)" /></g></g><g
                       id="g268"><g
                         id="g270"
                         transform="translate(129.282,44.931)"><g
                           id="g272"><g
                             id="g274"
                             transform="translate(-138.968,-51.877)"><text
                               transform="matrix(1,0,0,-1,138.968,51.877)"
                               style="font-variant:normal;font-weight:normal;font-size:9.96264px;font-family:CMSY10;-inkscape-font-specification:CMSY10;writing-mode:lr-tb;fill:#000000;fill-opacity:1;fill-rule:nonzero;stroke:none"
                               id="text278"><tspan
                                 x="0"
                                 y="0"
                                 id="tspan276">−</tspan></text><text
                               transform="matrix(1,0,0,-1,146.716,51.877)"
                               style="font-variant:normal;font-weight:normal;font-size:9.96264px;font-family:CMR10;-inkscape-font-specification:CMR10;writing-mode:lr-tb;fill:#000000;fill-opacity:1;fill-rule:nonzero;stroke:none"
                               id="text282"><tspan
                                 x="0"
                                 y="0"
                                 id="tspan280">6</tspan></text><g
                               id="g284"
                               transform="translate(138.968,51.877)" /></g></g><g
                           id="g286"
                           transform="translate(-129.282,-44.931)" /></g></g><g
                       id="g288"><g
                         id="g290"
                         transform="translate(129.282,68.794)"><g
                           id="g292"><g
                             id="g294"
                             transform="translate(-138.968,-75.74)"><text
                               transform="matrix(1,0,0,-1,138.968,75.74)"
                               style="font-variant:normal;font-weight:normal;font-size:9.96264px;font-family:CMSY10;-inkscape-font-specification:CMSY10;writing-mode:lr-tb;fill:#000000;fill-opacity:1;fill-rule:nonzero;stroke:none"
                               id="text298"><tspan
                                 x="0"
                                 y="0"
                                 id="tspan296">−</tspan></text><text
                               transform="matrix(1,0,0,-1,146.716,75.74)"
                               style="font-variant:normal;font-weight:normal;font-size:9.96264px;font-family:CMR10;-inkscape-font-specification:CMR10;writing-mode:lr-tb;fill:#000000;fill-opacity:1;fill-rule:nonzero;stroke:none"
                               id="text302"><tspan
                                 x="0"
                                 y="0"
                                 id="tspan300">4</tspan></text><g
                               id="g304"
                               transform="translate(138.968,75.74)" /></g></g><g
                           id="g306"
                           transform="translate(-129.282,-68.794)" /></g></g><g
                       id="g308"><g
                         id="g310"
                         transform="translate(129.282,92.657)"><g
                           id="g312"><g
                             id="g314"
                             transform="translate(-138.968,-99.603)"><text
                               transform="matrix(1,0,0,-1,138.968,99.603)"
                               style="font-variant:normal;font-weight:normal;font-size:9.96264px;font-family:CMSY10;-inkscape-font-specification:CMSY10;writing-mode:lr-tb;fill:#000000;fill-opacity:1;fill-rule:nonzero;stroke:none"
                               id="text318"><tspan
                                 x="0"
                                 y="0"
                                 id="tspan316">−</tspan></text><text
                               transform="matrix(1,0,0,-1,146.716,99.603)"
                               style="font-variant:normal;font-weight:normal;font-size:9.96264px;font-family:CMR10;-inkscape-font-specification:CMR10;writing-mode:lr-tb;fill:#000000;fill-opacity:1;fill-rule:nonzero;stroke:none"
                               id="text322"><tspan
                                 x="0"
                                 y="0"
                                 id="tspan320">2</tspan></text><g
                               id="g324"
                               transform="translate(138.968,99.603)" /></g></g><g
                           id="g326"
                           transform="translate(-129.282,-92.657)" /></g></g><g
                       id="g328"><g
                         id="g330"
                         transform="translate(137.03,139.969)"><g
                           id="g332"><g
                             id="g334"
                             transform="translate(-146.716,-146.915)"><text
                               transform="matrix(1,0,0,-1,146.716,146.915)"
                               style="font-variant:normal;font-weight:normal;font-size:9.96264px;font-family:CMR10;-inkscape-font-specification:CMR10;writing-mode:lr-tb;fill:#000000;fill-opacity:1;fill-rule:nonzero;stroke:none"
                               id="text338"><tspan
                                 x="0"
                                 y="0"
                                 id="tspan336">2</tspan></text><g
                               id="g340"
                               transform="translate(146.716,146.915)" /></g></g><g
                           id="g342"
                           transform="translate(-137.03,-139.969)" /></g></g><g
                       id="g344"><g
                         id="g346"
                         transform="translate(137.03,163.832)"><g
                           id="g348"><g
                             id="g350"
                             transform="translate(-146.716,-170.778)"><text
                               transform="matrix(1,0,0,-1,146.716,170.778)"
                               style="font-variant:normal;font-weight:normal;font-size:9.96264px;font-family:CMR10;-inkscape-font-specification:CMR10;writing-mode:lr-tb;fill:#000000;fill-opacity:1;fill-rule:nonzero;stroke:none"
                               id="text354"><tspan
                                 x="0"
                                 y="0"
                                 id="tspan352">4</tspan></text><g
                               id="g356"
                               transform="translate(146.716,170.778)" /></g></g><g
                           id="g358"
                           transform="translate(-137.03,-163.832)" /></g></g><g
                       id="g360"><g
                         id="g362"
                         transform="translate(137.03,187.695)"><g
                           id="g364"><g
                             id="g366"
                             transform="translate(-146.716,-194.641)"><text
                               transform="matrix(1,0,0,-1,146.716,194.641)"
                               style="font-variant:normal;font-weight:normal;font-size:9.96264px;font-family:CMR10;-inkscape-font-specification:CMR10;writing-mode:lr-tb;fill:#000000;fill-opacity:1;fill-rule:nonzero;stroke:none"
                               id="text370"><tspan
                                 x="0"
                                 y="0"
                                 id="tspan368">6</tspan></text><g
                               id="g372"
                               transform="translate(146.716,194.641)" /></g></g><g
                           id="g374"
                           transform="translate(-137.03,-187.695)" /></g></g><g
                       id="g376"><g
                         id="g378"
                         transform="translate(137.03,211.558)"><g
                           id="g380"><g
                             id="g382"
                             transform="translate(-146.716,-218.504)"><text
                               transform="matrix(1,0,0,-1,146.716,218.504)"
                               style="font-variant:normal;font-weight:normal;font-size:9.96264px;font-family:CMR10;-inkscape-font-specification:CMR10;writing-mode:lr-tb;fill:#000000;fill-opacity:1;fill-rule:nonzero;stroke:none"
                               id="text386"><tspan
                                 x="0"
                                 y="0"
                                 id="tspan384">8</tspan></text><g
                               id="g388"
                               transform="translate(146.716,218.504)" /></g></g><g
                           id="g390"
                           transform="translate(-137.03,-211.558)" /></g></g><g
                       id="g392"><g
                         id="g394"
                         transform="translate(132.049,235.421)"><g
                           id="g396"><g
                             id="g398"
                             transform="translate(-141.735,-242.367)"><text
                               transform="matrix(1,0,0,-1,141.735,242.367)"
                               style="font-variant:normal;font-weight:normal;font-size:9.96264px;font-family:CMR10;-inkscape-font-specification:CMR10;writing-mode:lr-tb;fill:#000000;fill-opacity:1;fill-rule:nonzero;stroke:none"
                               id="text402"><tspan
                                 x="0 4.9813199"
                                 y="0"
                                 sodipodi:role="line"
                                 id="tspan400">10</tspan></text><g
                               id="g404"
                               transform="translate(141.735,242.367)" /></g></g><g
                           id="g406"
                           transform="translate(-132.049,-235.421)" /></g></g><g
                       id="g408"
                       clip-path="url(#clipPath412)"><g
                         id="g414"><path
                           d="m 70.13858,239.17242 1.90169,-6.59486 1.90167,-6.23196 1.90169,-5.88909 1.90169,-5.56505 1.90168,-5.25883 1.90168,-4.96947 1.9017,-4.69604 1.90167,-4.43764 1.90169,-4.19347 1.90167,-3.96272 1.9017,-3.74469 1.90169,-3.53865 1.90167,-3.34393 1.90169,-3.15995 1.90169,-2.98605 1.90169,-2.82176 1.90167,-2.6665 1.90169,-2.51978 1.90168,-2.38113 1.90169,-2.25013 1.90167,-2.12629 1.90169,-2.00933 1.90169,-1.89874 1.90168,-1.79428 1.90168,-1.69554 1.90169,-1.60225 1.90168,-1.5141 1.90169,-1.43079 1.90167,-1.35205 1.90169,-1.27766 1.90169,-1.20735 1.90169,-1.14094 1.90167,-1.07813 1.90169,-1.01882 1.9017,-0.96277 1.90167,-0.90978 1.90169,-0.85975 1.90167,-0.81242 1.90171,-0.76772 1.90167,-0.72547 1.90169,-0.68557 1.90167,-0.64784 1.9017,-0.6122 1.90167,-0.5785 1.90169,-0.54668 1.90167,-0.5166 1.90171,-0.48816 1.90167,-0.46132 1.90168,-0.43591 1.90168,-0.41194 1.9017,-0.38929 1.90167,-0.36786 1.90169,-0.34761 1.90169,-0.32849 1.90169,-0.31041 1.90167,-0.29333 1.90169,-0.27721 1.9017,-0.26192 1.90167,-0.24754 1.90169,-0.23392 1.90167,-0.22102 1.9017,-0.20888 1.90168,-0.19739 1.90168,-0.1865 1.90168,-0.17627 1.9017,-0.16655 1.90167,-0.15741 1.90169,-0.14873 1.90167,-0.14056 1.9017,-0.1328 1.90168,-0.12553 1.90168,-0.1186 1.90168,-0.11207 1.9017,-0.10591 1.90168,-0.10009 1.90168,-0.0946 1.90167,-0.0894 1.90171,-0.0844 1.90167,-0.0798 1.90169,-0.0754 1.90168,-0.0713 1.90169,-0.0674 1.90167,-0.0636 1.90169,-0.0602 1.90169,-0.0568 1.90169,-0.0537 1.90168,-0.0507 1.90168,-0.048 1.90168,-0.0453 1.90169,-0.0428 1.90169,-0.0405 1.90167,-0.0382 1.90169,-0.0361 1.90169,-0.0342 1.90168,-0.0323 1.90168,-0.0305 1.90168,-0.0288 1.90169,-0.0272 1.90169,-0.0257"
                           style="fill:none;stroke:#000000;stroke-width:0.79701;stroke-linecap:butt;stroke-linejoin:miter;stroke-miterlimit:10;stroke-dasharray:2.98883, 2.98883;stroke-dashoffset:0;stroke-opacity:1"
                           id="path416" /></g><g
                         id="g418"><path
                           d="m 33.22354,239.17242 2.27457,-7.84475 2.27456,-7.33133 2.27454,-6.85146 2.27457,-6.40303 2.27456,-5.98393 2.27457,-5.59227 2.27457,-5.22626 2.27456,-4.88415 2.27457,-4.5645 2.27455,-4.26576 2.27457,-3.98653 2.27457,-3.72562 2.27456,-3.48176 2.27457,-3.25388 2.27457,-3.04092 2.27456,-2.84187 2.27455,-2.65586 2.27455,-2.48202 2.27457,-2.31958 2.27457,-2.16776 2.27456,-2.02588 2.27457,-1.89328 2.27457,-1.76936 2.27455,-1.65355 2.27457,-1.54534 2.27456,-1.44417 2.27457,-1.34963 2.27457,-1.26133 2.27456,-1.17877 2.27457,-1.10161 2.27455,-1.02949 2.27457,-0.96213 2.27455,-0.89915 2.27457,-0.84029 2.27456,-0.78531 2.27457,-0.7339 2.27457,-0.68585 2.27455,-0.64098 2.27456,-0.59901 2.27457,-0.55982 2.27457,-0.52317 2.27456,-0.48893 2.27457,-0.45693 2.27457,-0.42702 2.27456,-0.39908 2.27455,-0.37296 2.27455,-0.34854 2.27457,-0.32573 2.27457,-0.3044 2.27456,-0.2845 2.27457,-0.26585 2.27457,-0.24847 2.27455,-0.2322 2.27457,-0.21701 2.27456,-0.20279 2.27457,-0.18953 2.27457,-0.17712 2.27456,-0.16553 2.27457,-0.15469 2.27455,-0.14456 2.27457,-0.13512 2.27455,-0.12625 2.27457,-0.11801 2.27457,-0.11028 2.27456,-0.10306 2.27457,-0.0963 2.27455,-0.09 2.27456,-0.0841 2.27457,-0.0786 2.27457,-0.0735 2.27456,-0.0686 2.27457,-0.0642 2.27457,-0.06 2.27455,-0.0561 2.27457,-0.0524 2.27456,-0.0489 2.27455,-0.0457 2.27457,-0.0427 2.27457,-0.0399 2.27456,-0.0373 2.27456,-0.0349 2.27456,-0.0326 2.27457,-0.0305 2.27457,-0.0285 2.27456,-0.0266 2.27457,-0.0249 2.27457,-0.0232 2.27455,-0.0217 2.27456,-0.0203 2.27457,-0.019 2.27457,-0.0177 2.27455,-0.0166 2.27456,-0.0155 2.27457,-0.0145 2.27455,-0.0135 2.27457,-0.0126 2.27457,-0.0118 2.27456,-0.011 2.27457,-0.0103"
                           style="fill:none;stroke:#00008b;stroke-width:0.79701;stroke-linecap:butt;stroke-linejoin:miter;stroke-miterlimit:10;stroke-dasharray:0.79701, 1.99255;stroke-dashoffset:0;stroke-opacity:1"
                           id="path420" /></g><g
                         id="g422"><path
                           d="m 33.22354,131.78703 2.27457,-7.84477 2.27456,-7.33131 2.27454,-6.85147 2.27457,-6.40302 2.27456,-5.98393 2.27457,-5.59227 2.27457,-5.22626 2.27456,-4.88415 2.27457,-4.56452 2.27455,-4.26575 2.27457,-3.98652 2.27457,-3.72563 2.27456,-3.48175 2.27457,-3.25388 2.27457,-3.04092 2.27456,-2.84188 2.27455,-2.65585 2.27455,-2.48203 2.27457,-2.31959 2.27457,-2.16776 2.27456,-2.02587 2.27457,-1.89327 2.27457,-1.76936 2.27455,-1.65355 2.27457,-1.54534 2.27456,-1.44416 2.27457,-1.34966 2.27457,-1.26131 2.27456,-1.17877 2.27457,-1.10161 2.27455,-1.02951 2.27457,-0.96211 2.27455,-0.89915 2.27457,-0.84029 2.27456,-0.78531 2.27457,-0.7339 2.27457,-0.68587 2.27455,-0.64096 2.27456,-0.59901 2.27457,-0.55982 2.27457,-0.52318 2.27456,-0.48892 2.27457,-0.45695 2.27457,-0.42702 2.27456,-0.39907 2.27455,-0.37295 2.27455,-0.34854 2.27457,-0.32573 2.27457,-0.3044 2.27456,-0.2845 2.27457,-0.26585 2.27457,-0.24848 2.27455,-0.2322 2.27457,-0.217 2.27456,-0.2028 2.27457,-0.18952 2.27457,-0.17712 2.27456,-0.16554 2.27457,-0.15468 2.27455,-0.14456 2.27457,-0.13512 2.27455,-0.12627 2.27457,-0.11799 2.27457,-0.11028 2.27456,-0.10306 2.27457,-0.09633 2.27455,-0.08999 2.27456,-0.08412 2.27457,-0.07862 2.27457,-0.07347 2.27456,-0.06865 2.27457,-0.06416 2.27457,-0.05997 2.27455,-0.05604 2.27457,-0.05237 2.27456,-0.04895 2.27455,-0.04573 2.27457,-0.04274 2.27457,-0.03995 2.27456,-0.03734 2.27456,-0.03489 2.27456,-0.03261 2.27457,-0.03048 2.27457,-0.02847 2.27456,-0.02663 2.27457,-0.02487 2.27457,-0.02323 2.27455,-0.02173 2.27456,-0.0203 2.27457,-0.01897 2.27457,-0.01774 2.27455,-0.01657 2.27456,-0.01547 2.27457,-0.01447 2.27455,-0.01353 2.27457,-0.01264 2.27457,-0.01182 2.27456,-0.01104 2.27457,-0.01031"
                           style="fill:none;stroke:#8b0000;stroke-width:1.19553;stroke-linecap:butt;stroke-linejoin:miter;stroke-miterlimit:10;stroke-dasharray:none;stroke-opacity:1"
                           id="path424" /></g><g
                         id="g426"><path
                           d="M 0,11.93172 H 295.3197"
                           style="fill:none;stroke:#8b0000;stroke-width:0.3985;stroke-linecap:butt;stroke-linejoin:miter;stroke-miterlimit:10;stroke-dasharray:2.98883, 2.98883;stroke-dashoffset:0;stroke-opacity:1"
                           id="path428" /><g
                           id="g430"><g
                             id="g432"
                             transform="translate(13.905,17.388)"><g
                               id="g434"><g
                                 id="g436"
                                 transform="translate(-23.591,-24.334)"><text
                                   transform="matrix(1,0,0,-1,23.591,24.334)"
                                   style="font-variant:normal;font-weight:normal;font-size:9.96264px;font-family:CMMI10;-inkscape-font-specification:CMMI10;writing-mode:lr-tb;fill:#8b0000;fill-opacity:1;fill-rule:nonzero;stroke:none"
                                   id="text440"><tspan
                                   x="0"
                                   y="0"
                                   id="tspan438">y</tspan></text><text
                                   transform="matrix(1,0,0,-1,31.6,24.334)"
                                   style="font-variant:normal;font-weight:normal;font-size:9.96264px;font-family:CMR10;-inkscape-font-specification:CMR10;writing-mode:lr-tb;fill:#8b0000;fill-opacity:1;fill-rule:nonzero;stroke:none"
                                   id="text444"><tspan
                                   x="0"
                                   y="0"
                                   id="tspan442">=</tspan></text><text
                                   transform="matrix(1,0,0,-1,42.117,24.334)"
                                   style="font-variant:normal;font-weight:normal;font-size:9.96264px;font-family:CMSY10;-inkscape-font-specification:CMSY10;writing-mode:lr-tb;fill:#8b0000;fill-opacity:1;fill-rule:nonzero;stroke:none"
                                   id="text448"><tspan
                                   x="0"
                                   y="0"
                                   id="tspan446">−</tspan></text><text
                                   transform="matrix(1,0,0,-1,49.865,24.334)"
                                   style="font-variant:normal;font-weight:normal;font-size:9.96264px;font-family:CMR10;-inkscape-font-specification:CMR10;writing-mode:lr-tb;fill:#8b0000;fill-opacity:1;fill-rule:nonzero;stroke:none"
                                   id="text452"><tspan
                                   x="0"
                                   y="0"
                                   id="tspan450">9</tspan></text><g
                                   id="g454"
                                   transform="translate(23.591,24.334)" /></g></g><g
                               id="g456"
                               transform="translate(-13.905,-17.388)" /></g></g></g><g
                         id="g458"><g
                           id="g460"><g
                             id="g462"
                             transform="translate(91.925,29.873)"><g
                               id="g464"><g
                                 id="g466"
                                 transform="translate(-101.611,-36.819)"><text
                                   transform="matrix(1,0,0,-1,101.611,36.819)"
                                   style="font-variant:normal;font-weight:normal;font-size:9.96264px;font-family:CMR10;-inkscape-font-specification:CMR10;writing-mode:lr-tb;fill:#8b0000;fill-opacity:1;fill-rule:nonzero;stroke:none"
                                   id="text470"><tspan
                                   x="0"
                                   y="0"
                                   id="tspan468">(</tspan></text><text
                                   transform="matrix(1,0,0,-1,105.485,36.819)"
                                   style="font-variant:normal;font-weight:normal;font-size:9.96264px;font-family:CMSY10;-inkscape-font-specification:CMSY10;writing-mode:lr-tb;fill:#8b0000;fill-opacity:1;fill-rule:nonzero;stroke:none"
                                   id="text474"><tspan
                                   x="0"
                                   y="0"
                                   id="tspan472">−</tspan></text><text
                                   transform="matrix(1,0,0,-1,113.234,36.819)"
                                   style="font-variant:normal;font-weight:normal;font-size:9.96264px;font-family:CMR10;-inkscape-font-specification:CMR10;writing-mode:lr-tb;fill:#8b0000;fill-opacity:1;fill-rule:nonzero;stroke:none"
                                   id="text478"><tspan
                                   x="0"
                                   y="0"
                                   id="tspan476">1</tspan></text><text
                                   transform="matrix(1,0,0,-1,118.215,36.819)"
                                   style="font-variant:normal;font-weight:normal;font-size:9.96264px;font-family:CMMI10;-inkscape-font-specification:CMMI10;writing-mode:lr-tb;fill:#8b0000;fill-opacity:1;fill-rule:nonzero;stroke:none"
                                   id="text482"><tspan
                                   x="0"
                                   y="0"
                                   id="tspan480">,</tspan></text><text
                                   transform="matrix(1,0,0,-1,122.643,36.819)"
                                   style="font-variant:normal;font-weight:normal;font-size:9.96264px;font-family:CMSY10;-inkscape-font-specification:CMSY10;writing-mode:lr-tb;fill:#8b0000;fill-opacity:1;fill-rule:nonzero;stroke:none"
                                   id="text486"><tspan
                                   x="0"
                                   y="0"
                                   id="tspan484">−</tspan></text><text
                                   transform="matrix(1,0,0,-1,130.392,36.819)"
                                   style="font-variant:normal;font-weight:normal;font-size:9.96264px;font-family:CMR10;-inkscape-font-specification:CMR10;writing-mode:lr-tb;fill:#8b0000;fill-opacity:1;fill-rule:nonzero;stroke:none"
                                   id="text490"><tspan
                                   x="0 4.9813199"
                                   y="0"
                                   sodipodi:role="line"
                                   id="tspan488">8)</tspan></text><g
                                   id="g492"
                                   transform="translate(101.611,36.819)" /></g></g><g
                               id="g494"
                               transform="translate(-91.925,-29.873)" /></g></g></g><g
                         id="g496"><g
                           id="g498"><g
                             id="g500"
                             transform="translate(151.177,22.943)"><g
                               id="g502"><g
                                 id="g504"
                                 transform="translate(-160.863,-29.889)"><text
                                   transform="matrix(1,0,0,-1,160.863,29.889)"
                                   style="font-variant:normal;font-weight:normal;font-size:9.96264px;font-family:CMR10;-inkscape-font-specification:CMR10;writing-mode:lr-tb;fill:#000000;fill-opacity:1;fill-rule:nonzero;stroke:none"
                                   id="text508"><tspan
                                   x="0 3.8744707"
                                   y="0"
                                   sodipodi:role="line"
                                   id="tspan506">(0</tspan></text><text
                                   transform="matrix(1,0,0,-1,169.719,29.889)"
                                   style="font-variant:normal;font-weight:normal;font-size:9.96264px;font-family:CMMI10;-inkscape-font-specification:CMMI10;writing-mode:lr-tb;fill:#000000;fill-opacity:1;fill-rule:nonzero;stroke:none"
                                   id="text512"><tspan
                                   x="0"
                                   y="0"
                                   id="tspan510">,</tspan></text><text
                                   transform="matrix(1,0,0,-1,174.147,29.889)"
                                   style="font-variant:normal;font-weight:normal;font-size:9.96264px;font-family:CMSY10;-inkscape-font-specification:CMSY10;writing-mode:lr-tb;fill:#000000;fill-opacity:1;fill-rule:nonzero;stroke:none"
                                   id="text516"><tspan
                                   x="0"
                                   y="0"
                                   id="tspan514">−</tspan></text><text
                                   transform="matrix(1,0,0,-1,181.896,29.889)"
                                   style="font-variant:normal;font-weight:normal;font-size:9.96264px;font-family:CMR10;-inkscape-font-specification:CMR10;writing-mode:lr-tb;fill:#000000;fill-opacity:1;fill-rule:nonzero;stroke:none"
                                   id="text520"><tspan
                                   x="0"
                                   y="0"
                                   id="tspan518">8</tspan></text><text
                                   transform="matrix(1,0,0,-1,188.072,33.812)"
                                   style="font-variant:normal;font-weight:normal;font-size:6.97385px;font-family:CMR7;-inkscape-font-specification:CMR7;writing-mode:lr-tb;fill:#000000;fill-opacity:1;fill-rule:nonzero;stroke:none"
                                   id="text524"><tspan
                                   x="0"
                                   y="0"
                                   id="tspan522">2</tspan></text><g
                                   id="g526"
                                   transform="translate(188.072,32.38)"><path
                                   d="M 0,0 H 3.971"
                                   style="fill:none;stroke:#000000;stroke-width:0.398;stroke-linecap:butt;stroke-linejoin:miter;stroke-miterlimit:10;stroke-dasharray:none;stroke-opacity:1"
                                   id="path528" /></g><text
                                   transform="matrix(1,0,0,-1,188.072,26.454)"
                                   style="font-variant:normal;font-weight:normal;font-size:6.97385px;font-family:CMR7;-inkscape-font-specification:CMR7;writing-mode:lr-tb;fill:#000000;fill-opacity:1;fill-rule:nonzero;stroke:none"
                                   id="text532"><tspan
                                   x="0"
                                   y="0"
                                   id="tspan530">3</tspan></text><text
                                   transform="matrix(1,0,0,-1,193.239,29.889)"
                                   style="font-variant:normal;font-weight:normal;font-size:9.96264px;font-family:CMR10;-inkscape-font-specification:CMR10;writing-mode:lr-tb;fill:#000000;fill-opacity:1;fill-rule:nonzero;stroke:none"
                                   id="text536"><tspan
                                   x="0"
                                   y="0"
                                   id="tspan534">)</tspan></text><g
                                   id="g538"
                                   transform="translate(160.863,29.889)" /></g></g><g
                               id="g540"
                               transform="translate(-151.177,-22.943)" /></g></g></g></g></g><g
                     id="g542"><path
                       d="m 112.73769,23.86342 c 0,1.10048 -0.89209,1.99255 -1.99256,1.99255 -1.10048,0 -1.99255,-0.89207 -1.99255,-1.99255 0,-1.10047 0.89207,-1.99256 1.99255,-1.99256 1.10047,0 1.99256,0.89209 1.99256,1.99256 z"
                       style="fill:#8b0000;fill-opacity:1;fill-rule:nonzero;stroke:#8b0000;stroke-width:0.3985;stroke-linecap:butt;stroke-linejoin:miter;stroke-miterlimit:10;stroke-dasharray:none;stroke-opacity:1"
                       id="path544" /></g><g
                     id="g546"><path
                       d="m 149.1546,15.9885 c 0,0.82534 -0.66907,1.49441 -1.49441,1.49441 -0.82535,0 -1.49442,-0.66907 -1.49442,-1.49441 0,-0.82535 0.66907,-1.49442 1.49442,-1.49442 0.82534,0 1.49441,0.66907 1.49441,1.49442 z"
                       style="fill:#000000;fill-opacity:1;fill-rule:nonzero;stroke:#000000;stroke-width:0.3985;stroke-linecap:butt;stroke-linejoin:miter;stroke-miterlimit:10;stroke-dasharray:none;stroke-opacity:1"
                       id="path548" /></g><g
                     id="g550"><g
                       id="g552"
                       transform="translate(286.102,122.835)"><g
                         id="g554"><g
                           id="g556"
                           transform="translate(-295.788,-129.781)"><text
                             transform="matrix(1,0,0,-1,295.788,129.781)"
                             style="font-variant:normal;font-weight:normal;font-size:9.96264px;font-family:CMMI10;-inkscape-font-specification:CMMI10;writing-mode:lr-tb;fill:#000000;fill-opacity:1;fill-rule:nonzero;stroke:none"
                             id="text560"><tspan
                               x="0"
                               y="0"
                               id="tspan558">x</tspan></text><g
                             id="g562"
                             transform="translate(295.788,129.781)" /></g></g><g
                         id="g564"
                         transform="translate(-286.102,-122.835)" /></g></g><g
                     id="g566"><g
                       id="g568"
                       transform="translate(151.177,230.822)"><g
                         id="g570"><g
                           id="g572"
                           transform="translate(-160.863,-237.768)"><text
                             transform="matrix(1,0,0,-1,160.863,237.768)"
                             style="font-variant:normal;font-weight:normal;font-size:9.96264px;font-family:CMMI10;-inkscape-font-specification:CMMI10;writing-mode:lr-tb;fill:#000000;fill-opacity:1;fill-rule:nonzero;stroke:none"
                             id="text576"><tspan
                               x="0"
                               y="0"
                               id="tspan574">y</tspan></text><g
                             id="g578"
                             transform="translate(160.863,237.768)" /></g></g><g
                         id="g580"
                         transform="translate(-151.177,-230.822)" /></g></g></g></g><g
                 id="g582"
                 transform="translate(-9.686,-6.946)" /></g><g
               id="g584"
               transform="translate(9.686,6.946)" /></g><g
             id="g586" /><g
             id="g588" /></g></g></g></g></svg>
