<?xml version="1.0" encoding="UTF-8" standalone="no"?>
<svg
   xmlns:dc="http://purl.org/dc/elements/1.1/"
   xmlns:cc="http://creativecommons.org/ns#"
   xmlns:rdf="http://www.w3.org/1999/02/22-rdf-syntax-ns#"
   xmlns:svg="http://www.w3.org/2000/svg"
   xmlns="http://www.w3.org/2000/svg"
   xmlns:sodipodi="http://sodipodi.sourceforge.net/DTD/sodipodi-0.dtd"
   xmlns:inkscape="http://www.inkscape.org/namespaces/inkscape"
   version="1.1"
   id="svg2"
   xml:space="preserve"
   width="338.82932"
   height="310.71201"
   viewBox="0 0 338.82932 310.71201"
   sodipodi:docname="fig-comparison-bases.pdf"><metadata
     id="metadata8"><rdf:RDF><cc:Work
         rdf:about=""><dc:format>image/svg+xml</dc:format><dc:type
           rdf:resource="http://purl.org/dc/dcmitype/StillImage" /></cc:Work></rdf:RDF></metadata><defs
     id="defs6"><clipPath
       clipPathUnits="userSpaceOnUse"
       id="clipPath276"><path
         d="M 0,0 H 238.6285 V 210.28896 H 0 Z"
         id="path274" /></clipPath></defs><sodipodi:namedview
     pagecolor="#ffffff"
     bordercolor="#666666"
     borderopacity="1"
     objecttolerance="10"
     gridtolerance="10"
     guidetolerance="10"
     inkscape:pageopacity="0"
     inkscape:pageshadow="2"
     inkscape:window-width="640"
     inkscape:window-height="480"
     id="namedview4" /><g
     id="g10"
     inkscape:groupmode="layer"
     inkscape:label="fig-comparison-bases"
     transform="matrix(1.3333333,0,0,-1.3333333,0,310.712)"><g
       id="g12"
       transform="translate(9.686,16.217)"><g
         id="g14"><g
           id="g16"><g
             id="g18" /><g
             id="g20" /><g
             id="g22"><g
               id="g24" /></g><g
             id="g26" /><g
             id="g28" /><g
             id="g30" /><g
             id="g32" /><g
             id="g34"
             transform="translate(-9.686,-16.217)"><g
               id="g36"
               transform="translate(9.686,16.217)"><g
                 id="g38"><g
                   id="g40"><g
                     id="g42"><g
                       id="g44"><g
                         id="g46"><path
                           d="M 0,0 V 210.28896 M 39.77141,0 V 210.28896 M 79.54283,0 V 210.28896 M 159.08566,0 V 210.28896 M 198.85707,0 V 210.28896 M 238.6285,0 v 210.28896"
                           style="fill:none;stroke:#bfbfbf;stroke-width:0.3985;stroke-linecap:butt;stroke-linejoin:miter;stroke-miterlimit:10;stroke-dasharray:none;stroke-opacity:1"
                           id="path48" /></g></g><g
                       id="g50"><g
                         id="g52"><path
                           d="M 0,42.05779 H 238.6285 M 0,84.11559 H 238.6285 M 0,126.17337 H 238.6285 M 0,168.23117 H 238.6285 M 0,210.28896 h 238.6285"
                           style="fill:none;stroke:#bfbfbf;stroke-width:0.3985;stroke-linecap:butt;stroke-linejoin:miter;stroke-miterlimit:10;stroke-dasharray:none;stroke-opacity:1"
                           id="path54" /></g></g><g
                       id="g56"><g
                         id="g58"><path
                           d="m 0,-2.12604 v 4.25208 m 39.77141,-4.25208 v 4.25208 m 39.77142,-4.25208 v 4.25208 m 79.54283,-4.25208 v 4.25208 m 39.77141,-4.25208 v 4.25208 m 39.77143,-4.25208 v 4.25208"
                           style="fill:none;stroke:#808080;stroke-width:0.19925;stroke-linecap:butt;stroke-linejoin:miter;stroke-miterlimit:10;stroke-dasharray:none;stroke-opacity:1"
                           id="path60" /></g></g><g
                       id="g62"><g
                         id="g64"><path
                           d="m 117.18823,42.05779 h 4.252 m -4.252,42.0578 h 4.252 m -4.252,42.05778 h 4.252 m -4.252,42.0578 h 4.252 m -4.252,42.05779 h 4.252"
                           style="fill:none;stroke:#808080;stroke-width:0.19925;stroke-linecap:butt;stroke-linejoin:miter;stroke-miterlimit:10;stroke-dasharray:none;stroke-opacity:1"
                           id="path66" /></g></g><path
                       d="M 0,0 H 236.63597"
                       style="fill:none;stroke:#000000;stroke-width:0.3985;stroke-linecap:butt;stroke-linejoin:miter;stroke-miterlimit:10;stroke-dasharray:none;stroke-opacity:1"
                       id="path68" /><g
                       id="g70"
                       transform="translate(236.63597)"><g
                         id="g72"><path
                           d="M 1.99252,0 -1.19551,1.59401 0,0 -1.19551,-1.59401"
                           style="fill:#000000;fill-opacity:1;fill-rule:nonzero;stroke:none"
                           id="path74" /></g></g><path
                       d="M 119.31424,0 V 208.29643"
                       style="fill:none;stroke:#000000;stroke-width:0.3985;stroke-linecap:butt;stroke-linejoin:miter;stroke-miterlimit:10;stroke-dasharray:none;stroke-opacity:1"
                       id="path76" /><g
                       id="g78"
                       transform="rotate(90,-44.491095,163.80534)"><g
                         id="g80"><path
                           d="M 1.99252,0 -1.19551,1.59401 0,0 -1.19551,-1.59401"
                           style="fill:#000000;fill-opacity:1;fill-rule:nonzero;stroke:none"
                           id="path82" /></g></g><g
                       id="g84"><g
                         id="g86"
                         transform="translate(-6.365,-12.066)"><g
                           id="g88"><g
                             id="g90"
                             transform="translate(-3.321,-4.151)"><text
                               transform="matrix(1,0,0,-1,3.321,4.151)"
                               style="font-variant:normal;font-weight:normal;font-size:9.96264px;font-family:CMSY10;-inkscape-font-specification:CMSY10;writing-mode:lr-tb;fill:#000000;fill-opacity:1;fill-rule:nonzero;stroke:none"
                               id="text94"><tspan
                                 x="0"
                                 y="0"
                                 id="tspan92">−</tspan></text><text
                               transform="matrix(1,0,0,-1,11.069,4.151)"
                               style="font-variant:normal;font-weight:normal;font-size:9.96264px;font-family:CMR10;-inkscape-font-specification:CMR10;writing-mode:lr-tb;fill:#000000;fill-opacity:1;fill-rule:nonzero;stroke:none"
                               id="text98"><tspan
                                 x="0"
                                 y="0"
                                 id="tspan96">3</tspan></text><g
                               id="g100"
                               transform="translate(3.321,4.151)" /></g></g><g
                           id="g102"
                           transform="translate(6.365,12.066)" /></g></g><g
                       id="g104"><g
                         id="g106"
                         transform="translate(33.405,-12.066)"><g
                           id="g108"><g
                             id="g110"
                             transform="translate(-43.091,-4.151)"><text
                               transform="matrix(1,0,0,-1,43.091,4.151)"
                               style="font-variant:normal;font-weight:normal;font-size:9.96264px;font-family:CMSY10;-inkscape-font-specification:CMSY10;writing-mode:lr-tb;fill:#000000;fill-opacity:1;fill-rule:nonzero;stroke:none"
                               id="text114"><tspan
                                 x="0"
                                 y="0"
                                 id="tspan112">−</tspan></text><text
                               transform="matrix(1,0,0,-1,50.84,4.151)"
                               style="font-variant:normal;font-weight:normal;font-size:9.96264px;font-family:CMR10;-inkscape-font-specification:CMR10;writing-mode:lr-tb;fill:#000000;fill-opacity:1;fill-rule:nonzero;stroke:none"
                               id="text118"><tspan
                                 x="0"
                                 y="0"
                                 id="tspan116">2</tspan></text><g
                               id="g120"
                               transform="translate(43.091,4.151)" /></g></g><g
                           id="g122"
                           transform="translate(-33.405,12.066)" /></g></g><g
                       id="g124"><g
                         id="g126"
                         transform="translate(73.176,-12.066)"><g
                           id="g128"><g
                             id="g130"
                             transform="translate(-82.862,-4.151)"><text
                               transform="matrix(1,0,0,-1,82.862,4.151)"
                               style="font-variant:normal;font-weight:normal;font-size:9.96264px;font-family:CMSY10;-inkscape-font-specification:CMSY10;writing-mode:lr-tb;fill:#000000;fill-opacity:1;fill-rule:nonzero;stroke:none"
                               id="text134"><tspan
                                 x="0"
                                 y="0"
                                 id="tspan132">−</tspan></text><text
                               transform="matrix(1,0,0,-1,90.611,4.151)"
                               style="font-variant:normal;font-weight:normal;font-size:9.96264px;font-family:CMR10;-inkscape-font-specification:CMR10;writing-mode:lr-tb;fill:#000000;fill-opacity:1;fill-rule:nonzero;stroke:none"
                               id="text138"><tspan
                                 x="0"
                                 y="0"
                                 id="tspan136">1</tspan></text><g
                               id="g140"
                               transform="translate(82.862,4.151)" /></g></g><g
                           id="g142"
                           transform="translate(-73.176,12.066)" /></g></g><g
                       id="g144"><g
                         id="g146"
                         transform="translate(156.592,-12.066)"><g
                           id="g148"><g
                             id="g150"
                             transform="translate(-166.278,-4.151)"><text
                               transform="matrix(1,0,0,-1,166.278,4.151)"
                               style="font-variant:normal;font-weight:normal;font-size:9.96264px;font-family:CMR10;-inkscape-font-specification:CMR10;writing-mode:lr-tb;fill:#000000;fill-opacity:1;fill-rule:nonzero;stroke:none"
                               id="text154"><tspan
                                 x="0"
                                 y="0"
                                 id="tspan152">1</tspan></text><g
                               id="g156"
                               transform="translate(166.278,4.151)" /></g></g><g
                           id="g158"
                           transform="translate(-156.592,12.066)" /></g></g><g
                       id="g160"><g
                         id="g162"
                         transform="translate(196.363,-12.066)"><g
                           id="g164"><g
                             id="g166"
                             transform="translate(-206.049,-4.151)"><text
                               transform="matrix(1,0,0,-1,206.049,4.151)"
                               style="font-variant:normal;font-weight:normal;font-size:9.96264px;font-family:CMR10;-inkscape-font-specification:CMR10;writing-mode:lr-tb;fill:#000000;fill-opacity:1;fill-rule:nonzero;stroke:none"
                               id="text170"><tspan
                                 x="0"
                                 y="0"
                                 id="tspan168">2</tspan></text><g
                               id="g172"
                               transform="translate(206.049,4.151)" /></g></g><g
                           id="g174"
                           transform="translate(-196.363,12.066)" /></g></g><g
                       id="g176"><g
                         id="g178"
                         transform="translate(236.134,-12.066)"><g
                           id="g180"><g
                             id="g182"
                             transform="translate(-245.82,-4.151)"><text
                               transform="matrix(1,0,0,-1,245.82,4.151)"
                               style="font-variant:normal;font-weight:normal;font-size:9.96264px;font-family:CMR10;-inkscape-font-specification:CMR10;writing-mode:lr-tb;fill:#000000;fill-opacity:1;fill-rule:nonzero;stroke:none"
                               id="text186"><tspan
                                 x="0"
                                 y="0"
                                 id="tspan184">3</tspan></text><g
                               id="g188"
                               transform="translate(245.82,4.151)" /></g></g><g
                           id="g190"
                           transform="translate(-236.134,12.066)" /></g></g><g
                       id="g192"><g
                         id="g194"
                         transform="translate(108.685,38.847)"><g
                           id="g196"><g
                             id="g198"
                             transform="translate(-118.371,-55.064)"><text
                               transform="matrix(1,0,0,-1,118.371,55.064)"
                               style="font-variant:normal;font-weight:normal;font-size:9.96264px;font-family:CMR10;-inkscape-font-specification:CMR10;writing-mode:lr-tb;fill:#000000;fill-opacity:1;fill-rule:nonzero;stroke:none"
                               id="text202"><tspan
                                 x="0"
                                 y="0"
                                 id="tspan200">2</tspan></text><g
                               id="g204"
                               transform="translate(118.371,55.064)" /></g></g><g
                           id="g206"
                           transform="translate(-108.685,-38.847)" /></g></g><g
                       id="g208"><g
                         id="g210"
                         transform="translate(108.685,80.904)"><g
                           id="g212"><g
                             id="g214"
                             transform="translate(-118.371,-97.121)"><text
                               transform="matrix(1,0,0,-1,118.371,97.121)"
                               style="font-variant:normal;font-weight:normal;font-size:9.96264px;font-family:CMR10;-inkscape-font-specification:CMR10;writing-mode:lr-tb;fill:#000000;fill-opacity:1;fill-rule:nonzero;stroke:none"
                               id="text218"><tspan
                                 x="0"
                                 y="0"
                                 id="tspan216">4</tspan></text><g
                               id="g220"
                               transform="translate(118.371,97.121)" /></g></g><g
                           id="g222"
                           transform="translate(-108.685,-80.904)" /></g></g><g
                       id="g224"><g
                         id="g226"
                         transform="translate(108.685,122.961)"><g
                           id="g228"><g
                             id="g230"
                             transform="translate(-118.371,-139.178)"><text
                               transform="matrix(1,0,0,-1,118.371,139.178)"
                               style="font-variant:normal;font-weight:normal;font-size:9.96264px;font-family:CMR10;-inkscape-font-specification:CMR10;writing-mode:lr-tb;fill:#000000;fill-opacity:1;fill-rule:nonzero;stroke:none"
                               id="text234"><tspan
                                 x="0"
                                 y="0"
                                 id="tspan232">6</tspan></text><g
                               id="g236"
                               transform="translate(118.371,139.178)" /></g></g><g
                           id="g238"
                           transform="translate(-108.685,-122.961)" /></g></g><g
                       id="g240"><g
                         id="g242"
                         transform="translate(108.685,165.019)"><g
                           id="g244"><g
                             id="g246"
                             transform="translate(-118.371,-181.236)"><text
                               transform="matrix(1,0,0,-1,118.371,181.236)"
                               style="font-variant:normal;font-weight:normal;font-size:9.96264px;font-family:CMR10;-inkscape-font-specification:CMR10;writing-mode:lr-tb;fill:#000000;fill-opacity:1;fill-rule:nonzero;stroke:none"
                               id="text250"><tspan
                                 x="0"
                                 y="0"
                                 id="tspan248">8</tspan></text><g
                               id="g252"
                               transform="translate(118.371,181.236)" /></g></g><g
                           id="g254"
                           transform="translate(-108.685,-165.019)" /></g></g><g
                       id="g256"><g
                         id="g258"
                         transform="translate(103.704,207.076)"><g
                           id="g260"><g
                             id="g262"
                             transform="translate(-113.39,-223.293)"><text
                               transform="matrix(1,0,0,-1,113.39,223.293)"
                               style="font-variant:normal;font-weight:normal;font-size:9.96264px;font-family:CMR10;-inkscape-font-specification:CMR10;writing-mode:lr-tb;fill:#000000;fill-opacity:1;fill-rule:nonzero;stroke:none"
                               id="text266"><tspan
                                 x="0 4.9813199"
                                 y="0"
                                 sodipodi:role="line"
                                 id="tspan264">10</tspan></text><g
                               id="g268"
                               transform="translate(113.39,223.293)" /></g></g><g
                           id="g270"
                           transform="translate(-103.704,-207.076)" /></g></g><g
                       id="g272"
                       clip-path="url(#clipPath276)"><g
                         id="g278"><path
                           d="m 63.63419,2.2093 1.12484,0.1029 1.12485,0.10769 1.12485,0.11269 1.12485,0.11795 1.12484,0.12344 1.12485,0.12918 1.12485,0.13521 1.12485,0.14151 1.12484,0.14807 1.12485,0.155 1.12483,0.16222 1.12486,0.16975 1.12484,0.17767 1.12486,0.18593 1.12483,0.1946 1.12486,0.20367 1.12484,0.21314 1.12486,0.22308 1.12483,0.23346 1.12485,0.24434 1.12485,0.2557 1.12484,0.26764 1.12485,0.28008 1.12485,0.29312 1.12486,0.30679 1.12483,0.32107 1.12487,0.33602 1.12483,0.35168 1.12486,0.36805 1.12484,0.38519 1.12484,0.40313 1.12485,0.42189 1.12485,0.44155 1.12484,0.46212 1.12485,0.48364 1.12485,0.50616 1.12484,0.52973 1.12485,0.5544 1.12485,0.58023 1.12485,0.60723 1.12484,0.63553 1.12484,0.66512 1.12486,0.69609 1.12483,0.72852 1.12486,0.76245 1.12484,0.79795 1.12486,0.8351 1.12483,0.87401 1.12487,0.91471 1.12483,0.95732 1.12486,1.00188 1.12483,1.04856 1.12485,1.09737 1.12485,1.14848 1.12484,1.20198 1.12485,1.25795 1.12485,1.31654 1.12484,1.37786 1.12485,1.44201 1.12485,1.50918 1.12485,1.57947 1.12485,1.65301 1.12484,1.72999 1.12483,1.81058 1.12487,1.89488 1.12484,1.98316 1.12485,2.07548 1.12485,2.17215 1.12485,2.27333 1.12484,2.37918 1.12485,2.48998 1.12485,2.60596 1.12485,2.7273 1.12484,2.85433 1.12484,2.98726 1.12486,3.12639 1.12483,3.27197 1.12486,3.42436 1.12484,3.58384 1.12486,3.75073 1.12483,3.92542 1.12486,4.10822 1.12484,4.29956 1.12484,4.49979 1.12485,4.70935 1.12485,4.92867 1.12484,5.15821 1.12485,5.39844 1.12485,5.64984 1.12484,5.91297 1.12485,6.18832 1.12485,6.47655 1.12485,6.77817 1.12485,7.09382 1.12484,7.42419 1.12485,7.76998 1.12483,8.13179 1.12487,8.51053 1.12483,8.90686"
                           style="fill:none;stroke:#00008b;stroke-width:0.79701;stroke-linecap:butt;stroke-linejoin:miter;stroke-miterlimit:10;stroke-dasharray:none;stroke-opacity:1"
                           id="path280" /></g><g
                         id="g282"><path
                           d="m 0,2.62862 2.41037,0.11276 2.4104,0.11762 2.41039,0.12266 2.41038,0.12793 2.41039,0.13341 2.41038,0.13914 2.41039,0.14511 2.41038,0.15134 2.4104,0.15782 2.41037,0.16459 2.41039,0.17167 2.4104,0.17901 2.41036,0.18671 2.4104,0.19471 2.41039,0.20307 2.41037,0.21178 2.4104,0.22087 2.41039,0.23033 2.41038,0.24022 2.41039,0.25055 2.41038,0.26128 2.41039,0.27249 2.41038,0.28418 2.4104,0.29637 2.41037,0.30908 2.41039,0.32236 2.4104,0.33618 2.41037,0.3506 2.4104,0.36566 2.41038,0.38132 2.41037,0.3977 2.4104,0.41476 2.41039,0.43255 2.41039,0.45111 2.41038,0.47048 2.41039,0.49064 2.41038,0.51169 2.41039,0.53365 2.4104,0.55656 2.41037,0.58043 2.41038,0.60533 2.4104,0.63129 2.41037,0.65838 2.4104,0.68665 2.41039,0.71608 2.41037,0.74681 2.4104,0.77887 2.41038,0.81227 2.41039,0.84712 2.41038,0.88347 2.41039,0.92137 2.41038,0.96089 2.41039,1.00214 2.4104,1.04512 2.41037,1.08997 2.41038,1.13671 2.4104,1.18551 2.41037,1.23635 2.4104,1.2894 2.41039,1.34473 2.41037,1.4024 2.4104,1.46259 2.41038,1.52534 2.41039,1.59078 2.41039,1.65904 2.41038,1.7302 2.41038,1.80444 2.41039,1.88185 2.4104,1.96262 2.41037,2.04678 2.4104,2.13461 2.41038,2.2262 2.41038,2.32172 2.4104,2.42132 2.41038,2.52519 2.41037,2.63355 2.4104,2.74653 2.41039,2.86437 2.41038,2.98726 2.41039,3.11543 2.41038,3.2491 2.41039,3.38849 2.41038,3.53386 2.4104,3.68548 2.41037,3.8436 2.4104,4.00852 2.41039,4.18049 2.41037,4.35985 2.4104,4.54689 2.41038,4.74199 2.41037,4.94544 2.4104,5.15762 2.41039,5.37888 2.41039,5.60966 2.41038,5.85034 2.4104,6.10133 2.41037,6.36313 2.41038,6.63611 2.4104,6.92084"
                           style="fill:none;stroke:#005000;stroke-width:0.79701;stroke-linecap:butt;stroke-linejoin:miter;stroke-miterlimit:10;stroke-dasharray:none;stroke-opacity:1"
                           id="path284" /></g><g
                         id="g286"><path
                           d="m 0,168.23131 2.41037,-6.92084 2.4104,-6.63611 2.41039,-6.36313 2.41038,-6.10133 2.41039,-5.85034 2.41038,-5.60966 2.41039,-5.37888 2.41038,-5.15762 2.4104,-4.94544 2.41037,-4.74199 2.41039,-4.54689 2.4104,-4.35985 2.41036,-4.18049 2.4104,-4.00852 2.41039,-3.8436 2.41037,-3.68548 2.4104,-3.53386 2.41039,-3.38849 2.41038,-3.2491 2.41039,-3.11543 2.41038,-2.98726 2.41039,-2.86437 2.41038,-2.74653 2.4104,-2.63355 2.41037,-2.52519 2.41039,-2.42132 2.4104,-2.32172 2.41037,-2.2262 2.4104,-2.13461 2.41038,-2.04678 2.41037,-1.96262 2.4104,-1.88185 2.41039,-1.80444 2.41039,-1.7302 2.41038,-1.65904 2.41039,-1.59078 2.41038,-1.52534 2.41039,-1.46259 2.4104,-1.4024 2.41037,-1.34473 2.41038,-1.2894 2.4104,-1.23635 2.41037,-1.18551 2.4104,-1.13671 2.41039,-1.08997 2.41037,-1.04512 2.4104,-1.00214 2.41038,-0.96089 2.41039,-0.92137 2.41038,-0.88347 2.41039,-0.84712 2.41038,-0.81227 2.41039,-0.77887 2.4104,-0.74681 2.41037,-0.71608 2.41038,-0.68665 2.4104,-0.65838 2.41037,-0.63129 2.4104,-0.60533 2.41039,-0.58043 2.41037,-0.55656 2.4104,-0.53365 2.41038,-0.51169 2.41039,-0.49064 2.41039,-0.47048 2.41038,-0.45111 2.41038,-0.43255 2.41039,-0.41476 2.4104,-0.3977 2.41037,-0.38132 2.4104,-0.36566 2.41038,-0.3506 2.41038,-0.33618 2.4104,-0.32236 2.41038,-0.30908 2.41037,-0.29637 2.4104,-0.28418 2.41039,-0.27249 2.41038,-0.26128 2.41039,-0.25055 2.41038,-0.24022 2.41039,-0.23033 2.41038,-0.22087 2.4104,-0.21178 2.41037,-0.20307 2.4104,-0.19471 2.41039,-0.18671 2.41037,-0.17901 2.4104,-0.17167 2.41038,-0.16459 2.41037,-0.15782 2.4104,-0.15134 2.41039,-0.14511 2.41039,-0.13914 2.41038,-0.13341 2.4104,-0.12793 2.41037,-0.12266 2.41038,-0.11762 2.4104,-0.11276"
                           style="fill:none;stroke:#bf0040;stroke-width:0.79701;stroke-linecap:butt;stroke-linejoin:miter;stroke-miterlimit:10;stroke-dasharray:none;stroke-opacity:1"
                           id="path288" /></g><g
                         id="g290"><path
                           d="m 63.63419,200.15886 1.12484,-8.90686 1.12485,-8.51053 1.12485,-8.13179 1.12485,-7.76998 1.12484,-7.42419 1.12485,-7.09382 1.12485,-6.77817 1.12485,-6.47655 1.12484,-6.18832 1.12485,-5.91297 1.12483,-5.64984 1.12486,-5.39844 1.12484,-5.15821 1.12486,-4.92867 1.12483,-4.70935 1.12486,-4.49979 1.12484,-4.29956 1.12486,-4.10822 1.12483,-3.92542 1.12485,-3.75073 1.12485,-3.58384 1.12484,-3.42436 1.12485,-3.27197 1.12485,-3.12639 1.12486,-2.98726 1.12483,-2.85433 1.12487,-2.7273 1.12483,-2.60596 1.12486,-2.48998 1.12484,-2.37918 1.12484,-2.27333 1.12485,-2.17215 1.12485,-2.07548 1.12484,-1.98316 1.12485,-1.89488 1.12485,-1.81058 1.12484,-1.72999 1.12485,-1.65301 1.12485,-1.57947 1.12485,-1.50918 1.12484,-1.44201 1.12484,-1.37786 1.12486,-1.31654 1.12483,-1.25795 1.12486,-1.20198 1.12484,-1.14848 1.12486,-1.09737 1.12483,-1.04856 1.12487,-1.00188 1.12483,-0.95732 1.12486,-0.91471 1.12483,-0.87401 1.12485,-0.8351 1.12485,-0.79795 1.12484,-0.76245 1.12485,-0.72852 1.12485,-0.69609 1.12484,-0.66512 1.12485,-0.63553 1.12485,-0.60723 1.12485,-0.58023 1.12485,-0.5544 1.12484,-0.52973 1.12483,-0.50616 1.12487,-0.48364 1.12484,-0.46212 1.12485,-0.44155 1.12485,-0.42189 1.12485,-0.40313 1.12484,-0.38519 1.12485,-0.36805 1.12485,-0.35168 1.12485,-0.33602 1.12484,-0.32107 1.12484,-0.30679 1.12486,-0.29312 1.12483,-0.28008 1.12486,-0.26764 1.12484,-0.2557 1.12486,-0.24434 1.12483,-0.23346 1.12486,-0.22308 1.12484,-0.21314 1.12484,-0.20367 1.12485,-0.1946 1.12485,-0.18593 1.12484,-0.17767 1.12485,-0.16975 1.12485,-0.16222 1.12484,-0.155 1.12485,-0.14807 1.12485,-0.14151 1.12485,-0.13521 1.12485,-0.12918 1.12484,-0.12344 1.12485,-0.11795 1.12483,-0.11269 1.12487,-0.10769 1.12483,-0.1029"
                           style="fill:none;stroke:#8b0000;stroke-width:0.79701;stroke-linecap:butt;stroke-linejoin:miter;stroke-miterlimit:10;stroke-dasharray:none;stroke-opacity:1"
                           id="path292" /></g><g
                         id="g294" /><g
                         id="g296"><g
                           id="g298" /><g
                           id="g300"
                           transform="translate(170.557,143.891)"><g
                             id="g302"><g
                               id="g304"
                               transform="translate(-180.243,-160.108)"><text
                                 transform="matrix(1,0,0,-1,180.243,160.108)"
                                 style="font-variant:normal;font-weight:normal;font-size:9.96264px;font-family:CMR10;-inkscape-font-specification:CMR10;writing-mode:lr-tb;fill:#00008b;fill-opacity:1;fill-rule:nonzero;stroke:none"
                                 id="text308"><tspan
                                   x="0"
                                   y="0"
                                   id="tspan306">5</tspan></text><text
                                 transform="matrix(1,0,0,-1,185.224,163.724)"
                                 style="font-variant:normal;font-weight:normal;font-size:6.97385px;font-family:CMMI7;-inkscape-font-specification:CMMI7;writing-mode:lr-tb;fill:#00008b;fill-opacity:1;fill-rule:nonzero;stroke:none"
                                 id="text312"><tspan
                                   x="0"
                                   y="0"
                                   id="tspan310">x</tspan></text><g
                                 id="g314"
                                 transform="translate(180.243,160.108)" /></g></g><g
                             id="g316"
                             transform="translate(-170.557,-143.891)" /></g></g><g
                         id="g318"><g
                           id="g320" /><g
                           id="g322"
                           transform="translate(40.359,144.71)"><g
                             id="g324"><g
                               id="g326"
                               transform="translate(-50.045,-160.927)"><text
                                 transform="matrix(1,0,0,-1,50.045,160.927)"
                                 style="font-variant:normal;font-weight:normal;font-size:9.96264px;font-family:CMR10;-inkscape-font-specification:CMR10;writing-mode:lr-tb;fill:#8b0000;fill-opacity:1;fill-rule:nonzero;stroke:none"
                                 id="text330"><tspan
                                   x="0 3.8744707"
                                   y="0"
                                   sodipodi:role="line"
                                   id="tspan328">(1</tspan></text><text
                                 transform="matrix(1,0,0,-1,58.9,160.927)"
                                 style="font-variant:normal;font-weight:normal;font-size:9.96264px;font-family:CMMI10;-inkscape-font-specification:CMMI10;writing-mode:lr-tb;fill:#8b0000;fill-opacity:1;fill-rule:nonzero;stroke:none"
                                 id="text334"><tspan
                                   x="0"
                                   y="0"
                                   id="tspan332">/</tspan></text><text
                                 transform="matrix(1,0,0,-1,63.882,160.927)"
                                 style="font-variant:normal;font-weight:normal;font-size:9.96264px;font-family:CMR10;-inkscape-font-specification:CMR10;writing-mode:lr-tb;fill:#8b0000;fill-opacity:1;fill-rule:nonzero;stroke:none"
                                 id="text338"><tspan
                                   x="0 4.9813199"
                                   y="0"
                                   sodipodi:role="line"
                                   id="tspan336">5)</tspan></text><text
                                 transform="matrix(1,0,0,-1,72.737,164.542)"
                                 style="font-variant:normal;font-weight:normal;font-size:6.97385px;font-family:CMMI7;-inkscape-font-specification:CMMI7;writing-mode:lr-tb;fill:#8b0000;fill-opacity:1;fill-rule:nonzero;stroke:none"
                                 id="text342"><tspan
                                   x="0"
                                   y="0"
                                   id="tspan340">x</tspan></text><g
                                 id="g344"
                                 transform="translate(50.045,160.927)" /></g></g><g
                             id="g346"
                             transform="translate(-40.359,-144.71)" /></g></g><g
                         id="g348"><g
                           id="g350" /><g
                           id="g352"
                           transform="translate(8.542,77.418)"><g
                             id="g354"><g
                               id="g356"
                               transform="translate(-18.228,-93.635)"><text
                                 transform="matrix(1,0,0,-1,18.228,93.635)"
                                 style="font-variant:normal;font-weight:normal;font-size:9.96264px;font-family:CMR10;-inkscape-font-specification:CMR10;writing-mode:lr-tb;fill:#bf0040;fill-opacity:1;fill-rule:nonzero;stroke:none"
                                 id="text360"><tspan
                                   x="0 3.8744707"
                                   y="0"
                                   sodipodi:role="line"
                                   id="tspan358">(1</tspan></text><text
                                 transform="matrix(1,0,0,-1,27.084,93.635)"
                                 style="font-variant:normal;font-weight:normal;font-size:9.96264px;font-family:CMMI10;-inkscape-font-specification:CMMI10;writing-mode:lr-tb;fill:#bf0040;fill-opacity:1;fill-rule:nonzero;stroke:none"
                                 id="text364"><tspan
                                   x="0"
                                   y="0"
                                   id="tspan362">/</tspan></text><text
                                 transform="matrix(1,0,0,-1,32.065,93.635)"
                                 style="font-variant:normal;font-weight:normal;font-size:9.96264px;font-family:CMR10;-inkscape-font-specification:CMR10;writing-mode:lr-tb;fill:#bf0040;fill-opacity:1;fill-rule:nonzero;stroke:none"
                                 id="text368"><tspan
                                   x="0 4.9813199"
                                   y="0"
                                   sodipodi:role="line"
                                   id="tspan366">2)</tspan></text><text
                                 transform="matrix(1,0,0,-1,40.921,97.25)"
                                 style="font-variant:normal;font-weight:normal;font-size:6.97385px;font-family:CMMI7;-inkscape-font-specification:CMMI7;writing-mode:lr-tb;fill:#bf0040;fill-opacity:1;fill-rule:nonzero;stroke:none"
                                 id="text372"><tspan
                                   x="0"
                                   y="0"
                                   id="tspan370">x</tspan></text><g
                                 id="g374"
                                 transform="translate(18.228,93.635)" /></g></g><g
                             id="g376"
                             transform="translate(-8.542,-77.418)" /></g></g><g
                         id="g378"><g
                           id="g380" /><g
                           id="g382"
                           transform="translate(202.374,76.6)"><g
                             id="g384"><g
                               id="g386"
                               transform="translate(-212.06,-92.817)"><text
                                 transform="matrix(1,0,0,-1,212.06,92.817)"
                                 style="font-variant:normal;font-weight:normal;font-size:9.96264px;font-family:CMR10;-inkscape-font-specification:CMR10;writing-mode:lr-tb;fill:#005000;fill-opacity:1;fill-rule:nonzero;stroke:none"
                                 id="text390"><tspan
                                   x="0"
                                   y="0"
                                   id="tspan388">2</tspan></text><text
                                 transform="matrix(1,0,0,-1,217.041,96.432)"
                                 style="font-variant:normal;font-weight:normal;font-size:6.97385px;font-family:CMMI7;-inkscape-font-specification:CMMI7;writing-mode:lr-tb;fill:#005000;fill-opacity:1;fill-rule:nonzero;stroke:none"
                                 id="text394"><tspan
                                   x="0"
                                   y="0"
                                   id="tspan392">x</tspan></text><g
                                 id="g396"
                                 transform="translate(212.06,92.817)" /></g></g><g
                             id="g398"
                             transform="translate(-202.374,-76.6)" /></g></g></g></g><g
                     id="g400"><path
                       d="m 121.30666,21.0289 c 0,1.10048 -0.89208,1.99255 -1.99256,1.99255 -1.10046,0 -1.99255,-0.89207 -1.99255,-1.99255 0,-1.10046 0.89209,-1.99255 1.99255,-1.99255 1.10048,0 1.99256,0.89209 1.99256,1.99255 z"
                       style="fill:#000000;fill-opacity:1;fill-rule:nonzero;stroke:#000000;stroke-width:0.3985;stroke-linecap:butt;stroke-linejoin:miter;stroke-miterlimit:10;stroke-dasharray:none;stroke-opacity:1"
                       id="path402" /></g><g
                     id="g404"><g
                       id="g406"
                       transform="translate(229.411,3.52)"><g
                         id="g408"><g
                           id="g410"
                           transform="translate(-239.097,-19.737)"><text
                             transform="matrix(1,0,0,-1,239.097,19.737)"
                             style="font-variant:normal;font-weight:normal;font-size:9.96264px;font-family:CMMI10;-inkscape-font-specification:CMMI10;writing-mode:lr-tb;fill:#000000;fill-opacity:1;fill-rule:nonzero;stroke:none"
                             id="text414"><tspan
                               x="0"
                               y="0"
                               id="tspan412">x</tspan></text><g
                             id="g416"
                             transform="translate(239.097,19.737)" /></g></g><g
                         id="g418"
                         transform="translate(-229.411,-3.52)" /></g></g><g
                     id="g420"><g
                       id="g422"
                       transform="translate(122.832,202.477)"><g
                         id="g424"><g
                           id="g426"
                           transform="translate(-132.518,-218.694)"><text
                             transform="matrix(1,0,0,-1,132.518,218.694)"
                             style="font-variant:normal;font-weight:normal;font-size:9.96264px;font-family:CMMI10;-inkscape-font-specification:CMMI10;writing-mode:lr-tb;fill:#000000;fill-opacity:1;fill-rule:nonzero;stroke:none"
                             id="text430"><tspan
                               x="0"
                               y="0"
                               id="tspan428">y</tspan></text><g
                             id="g432"
                             transform="translate(132.518,218.694)" /></g></g><g
                         id="g434"
                         transform="translate(-122.832,-202.477)" /></g></g></g></g><g
                 id="g436"
                 transform="translate(-9.686,-16.217)" /></g><g
               id="g438"
               transform="translate(9.686,16.217)" /></g><g
             id="g440" /><g
             id="g442" /></g></g></g></g></svg>
